<svg width="687" height="1031" viewBox="0 0 687 1031" fill="none" xmlns="http://www.w3.org/2000/svg">
<g clip-path="url(#clip0_132_101)">
<rect width="687" height="1031" fill="#F9C399"/>
<path fill-rule="evenodd" clip-rule="evenodd" d="M156.114 37.5652C166.801 37.5646 246.712 37.5646 261.578 37.5652C276.444 37.5659 275.979 60.3567 261.578 60.3567H198.432C196.341 62.7345 196.978 67.5222 199.773 69.0173L201.642 69.0173C218.599 69.0175 217.902 89.0738 201.642 89.0738H172.215C168.884 91.5992 170.192 98.5174 175.024 98.6458C253.1 98.6457 344.947 98.6459 356.817 98.6462C377.26 98.6469 378.189 127.363 356.817 127.363H280.404C275.87 130.476 275.979 140.66 280.463 143.773C292.688 143.773 302.705 143.773 307.106 143.773C321.973 143.774 321.973 166.565 307.106 166.565H201.642C190.492 166.565 190.028 143.774 201.642 143.773C206.03 143.773 220.028 143.773 236.553 143.773C241.677 140.66 242.226 130.476 236.849 127.363H62.7278C44.8408 127.363 46.6995 98.6469 62.7278 98.6462C67.9024 98.646 98.2579 98.6459 137.684 98.6458C143.249 98.5193 144.08 91.5996 140.549 89.0738H77.5943C61.5657 89.0738 64.121 69.0176 77.5943 69.0173C87.3992 69.0171 139.647 69.0171 173.907 69.0172C176.159 67.522 176.461 62.7344 174.812 60.3567H156.114C147.286 60.3567 145.428 37.5659 156.114 37.5652Z" fill="#F0E59F"/>
<path fill-rule="evenodd" clip-rule="evenodd" d="M461.614 220.315C472.301 220.314 552.212 220.314 567.078 220.315C581.944 220.316 581.479 243.107 567.078 243.107H503.933C501.842 245.484 502.479 250.272 505.274 251.767L507.142 251.767C524.099 251.767 523.402 271.824 507.142 271.824H477.715C474.384 274.349 475.691 281.265 480.522 281.396C558.598 281.396 650.447 281.396 662.317 281.396C682.76 281.397 683.689 310.113 662.317 310.113H585.904C581.369 313.225 581.479 323.41 585.963 326.523C598.188 326.523 608.205 326.523 612.606 326.523C627.473 326.524 627.473 349.314 612.606 349.314H507.142C495.992 349.314 495.528 326.524 507.142 326.523C511.53 326.523 525.528 326.523 542.053 326.523C547.177 323.409 547.726 313.225 542.349 310.113H368.228C350.341 310.113 352.199 281.397 368.228 281.396C373.403 281.396 403.759 281.396 443.186 281.396C448.749 281.267 449.579 274.349 446.049 271.824H383.094C367.066 271.824 369.621 251.767 383.094 251.767C392.899 251.767 445.148 251.767 479.408 251.767C481.66 250.272 481.962 245.484 480.313 243.107H461.614C452.786 243.107 450.928 220.316 461.614 220.315Z" fill="#F0E59F"/>
<path d="M536.874 96.8399C521.544 94.9394 509.765 100.487 492 124.954C501.914 80.0903 517.988 68.6096 555.423 78.847C582.048 47.619 600.371 32.8238 635 8C616.264 41.562 606.639 63.205 580.552 96.8399C593.434 135.693 580.255 150.333 539.268 166C556.617 146.067 563.315 134.31 560.808 114.27C555.972 120.992 553.493 123.502 545.251 127.765C538.863 119.334 524.908 112.584 524.908 112.584C524.908 112.584 529.437 101.558 536.874 96.8399Z" fill="#F0E59F"/>
<path d="M29.5527 275.154C46.0747 269.894 55.7392 266.156 73.969 264.087C80.7326 250.011 88.7385 246.286 107.678 244.244C126.696 243.064 135.138 246.073 143.369 255.31C168.241 255.066 180.348 257.223 200.08 259.127C209.451 260.893 206.344 262.036 200.08 264.087C132.366 278.046 94.979 281.669 29.5527 279.352C23.1363 278.709 21.2234 278.086 29.5527 275.154Z" fill="#F0E59F"/>
<path d="M535.501 656.44C526.174 621.921 514.381 610.894 489.334 596.308H604.752C577.451 616.159 565.948 628.659 560.636 656.44V1031H535.501V656.44Z" fill="#75B9AD"/>
<ellipse cx="551.402" cy="575.736" rx="121.402" ry="23.7364" fill="#75B9AD"/>
<path fill-rule="evenodd" clip-rule="evenodd" d="M101.196 663.803L77 638.418V1031H299C239.122 968.954 211.774 933.109 183.463 865.702L180.439 587.057L131.441 634.511V556.95H157.452V545.143H131.441V533.926H157.452V522.119H131.441V456H124.787V522.119H95.1471V533.926H124.787V545.143H95.1471V556.95H124.787V640.955L101.196 663.803ZM157.452 907.617C173.282 943.781 187.598 964.335 222.782 1001.48H111.48C112.949 944.801 124.416 923.899 157.452 907.617Z" fill="#AFD7A6"/>
<path d="M650.833 688.185L618.402 676.84L611.195 694.011H592.195V1031H687.195V675L650.833 688.185Z" fill="#AFD7A6"/>
<rect x="687" y="1031" width="687" height="412" transform="rotate(180 687 1031)" fill="url(#paint0_linear_132_101)"/>
<rect x="207.5" y="162.5" width="272" height="466" rx="29.5" fill="#75B9AD" stroke="black"/>
<rect x="227.5" y="196.5" width="231" height="386" fill="#F9C399" stroke="black"/>
<rect x="315.5" y="178.5" width="48" height="3" rx="1.5" fill="#F9C399" stroke="black"/>
<circle cx="374" cy="180" r="1.5" fill="#F9C399" stroke="black"/>
<path d="M278.999 337L342 300.578L405.001 337L342 373.422L278.999 337Z" fill="#AFD7A6" stroke="black"/>
<path d="M278.059 341.694L339.876 378.715L341.605 450.749L279.788 413.728L278.059 341.694Z" fill="#AFD7A6" stroke="black"/>
<path d="M407.52 340.735L406.934 412.788L345.711 450.784L346.298 378.731L407.52 340.735Z" fill="#AFD7A6" stroke="black"/>
</g>
<defs>
<linearGradient id="paint0_linear_132_101" x1="1030.5" y1="1031" x2="1030.5" y2="1443" gradientUnits="userSpaceOnUse">
<stop stop-color="#F0E59F"/>
<stop offset="0.895833" stop-color="#EDF7FC" stop-opacity="0"/>
</linearGradient>
<clipPath id="clip0_132_101">
<rect width="687" height="1031" fill="white"/>
</clipPath>
</defs>
</svg>
