<svg width="687" height="1031" viewBox="0 0 687 1031" fill="none" xmlns="http://www.w3.org/2000/svg">
<g clip-path="url(#clip0_132_139)">
<rect width="687" height="1031" fill="#FFF4E3"/>
<path fill-rule="evenodd" clip-rule="evenodd" d="M152.114 37.5652C162.801 37.5646 242.712 37.5646 257.578 37.5652C272.444 37.5659 271.979 60.3567 257.578 60.3567H194.432C192.341 62.7345 192.978 67.5222 195.773 69.0173L197.642 69.0173C214.599 69.0175 213.902 89.0738 197.642 89.0738H168.215C164.884 91.5992 166.192 98.5174 171.024 98.6458C249.1 98.6457 340.947 98.6459 352.817 98.6462C373.26 98.6469 374.189 127.363 352.817 127.363H276.404C271.87 130.476 271.979 140.66 276.463 143.773C288.688 143.773 298.705 143.773 303.106 143.773C317.973 143.774 317.973 166.565 303.106 166.565H197.642C186.492 166.565 186.028 143.774 197.642 143.773C202.03 143.773 216.028 143.773 232.553 143.773C237.677 140.66 238.226 130.476 232.849 127.363H58.7278C40.8408 127.363 42.6995 98.6469 58.7278 98.6462C63.9024 98.646 94.2579 98.6459 133.684 98.6458C139.249 98.5193 140.08 91.5996 136.549 89.0738H73.5943C57.5657 89.0738 60.121 69.0176 73.5943 69.0173C83.3992 69.0171 135.647 69.0171 169.907 69.0172C172.159 67.522 172.461 62.7344 170.812 60.3567H152.114C143.286 60.3567 141.428 37.5659 152.114 37.5652Z" fill="#FFCDAB"/>
<path fill-rule="evenodd" clip-rule="evenodd" d="M457.614 220.315C468.301 220.314 548.212 220.314 563.078 220.315C577.944 220.316 577.479 243.107 563.078 243.107H499.933C497.842 245.484 498.479 250.272 501.274 251.767L503.142 251.767C520.099 251.767 519.402 271.824 503.142 271.824H473.715C470.384 274.349 471.691 281.265 476.522 281.396C554.598 281.396 646.447 281.396 658.317 281.396C678.76 281.397 679.689 310.113 658.317 310.113H581.904C577.369 313.225 577.479 323.41 581.963 326.523C594.188 326.523 604.205 326.523 608.606 326.523C623.473 326.524 623.473 349.314 608.606 349.314H503.142C491.992 349.314 491.528 326.524 503.142 326.523C507.53 326.523 521.528 326.523 538.053 326.523C543.177 323.409 543.726 313.225 538.349 310.113H364.228C346.341 310.113 348.199 281.397 364.228 281.396C369.403 281.396 399.759 281.396 439.186 281.396C444.749 281.267 445.579 274.349 442.049 271.824H379.094C363.066 271.824 365.621 251.767 379.094 251.767C388.899 251.767 441.148 251.767 475.408 251.767C477.66 250.272 477.962 245.484 476.313 243.107H457.614C448.786 243.107 446.928 220.316 457.614 220.315Z" fill="#FFCDAB"/>
<path d="M532.874 96.8399C517.544 94.9394 505.765 100.487 488 124.954C497.914 80.0903 513.988 68.6096 551.423 78.847C578.048 47.619 596.371 32.8238 631 8C612.264 41.562 602.639 63.205 576.552 96.8399C589.434 135.693 576.255 150.333 535.268 166C552.617 146.067 559.315 134.31 556.808 114.27C551.972 120.992 549.493 123.502 541.251 127.765C534.863 119.334 520.908 112.584 520.908 112.584C520.908 112.584 525.437 101.558 532.874 96.8399Z" fill="#FFCDAB"/>
<path d="M25.5527 275.154C42.0747 269.894 51.7392 266.156 69.969 264.087C76.7326 250.011 84.7385 246.286 103.678 244.244C122.696 243.064 131.138 246.073 139.369 255.31C164.241 255.066 176.348 257.223 196.08 259.127C205.451 260.893 202.344 262.036 196.08 264.087C128.366 278.046 90.979 281.669 25.5527 279.352C19.1363 278.709 17.2234 278.086 25.5527 275.154Z" fill="#FFCDAB"/>
<path d="M534.501 656.44C525.174 621.921 513.381 610.894 488.333 596.308H603.751C576.451 616.159 564.947 628.659 559.636 656.44V1031H534.501V656.44Z" fill="#5D5D5A"/>
<ellipse cx="550.402" cy="575.736" rx="121.402" ry="23.7364" fill="#5D5D5A"/>
<path fill-rule="evenodd" clip-rule="evenodd" d="M16.5319 432V488.771H20.754V497.264H36.5865V502.628L46.086 503.075V506.651L38.6975 511.569L85.1396 530.343C93.2508 533.212 95.0285 535.168 96.7502 538.837V543.307L107.833 545.989C110.992 547.11 110.44 547.556 107.833 548.224L94.1114 551.8C94.9888 555.337 91.7581 557.397 87.3492 560.208L87.3481 560.209L87.3474 560.21C86.6379 560.662 85.8979 561.134 85.1396 561.634C92.5251 561.616 94.2914 562.573 94.1114 565.657C94.5221 569.572 92.4891 570.604 85.1396 570.575H56.6411C41.5384 633.387 34.0753 668.941 32.8922 736.417C34.5675 852.95 44.095 917.152 66.1406 1031H41.7798H30.517V1010.46H4.55902V1031H-4.77298H-31.4935C-9.97903 920.296 -5.56851 854.901 -1.93937 736.417C-4.7206 671.218 -12.3746 635.035 -27.2715 570.575H-54.1868C-61.262 570.457 -63.2151 570.096 -63.1583 566.104C-63.0574 563.125 -62.6456 562.093 -56.8256 561.634C-61.4933 558.498 -63.3186 556.426 -64.2141 551.8L-77.4078 548.224C-79.2938 547.41 -79.7551 546.93 -77.4078 545.989L-67.3806 542.413V538.837C-64.8799 534.852 -62.6291 532.968 -56.8256 530.343L-8.27239 511.569L-15.1332 506.651V503.075H-8.27239V497.264H7.56017V488.771H11.7822V432H16.5319ZM-39.9371 530.343C-50.0303 533.675 -53.0406 535.534 -54.1868 538.837H85.1396C83.1264 535.454 78.6674 533.603 67.7243 530.343H-39.9371ZM-54.1868 551.8C-54.7852 555.634 -51.8858 557.788 -44.6869 561.634H74.585C82.4633 557.727 84.8893 555.568 85.1396 551.8H-54.1868ZM8.28699 662.66L7.56017 570.575H21.8097L21.8077 662.66C17.0688 686.054 13.7212 687.576 8.28699 662.66ZM28.3107 611.087C30.1748 598.405 32.6125 586.282 36.0592 570.575H28.9344L28.3107 611.087ZM-6.16097 570.575H1.22755V611.087C-0.430206 599.162 -2.60226 586.828 -6.16097 570.575ZM16.2509 858.533C14.9328 861.627 13.8814 864.136 13.0329 866.918V939.587H21.775L19.7802 866.918C18.8067 864.144 17.6457 861.407 16.2509 858.533ZM4.55902 939.587L9.60046 901.514V939.587H4.55902ZM30.517 939.587L24.9393 901.514L26.146 939.587H30.517ZM30.517 954.944H4.55902V946.947H30.517V954.944ZM4.55902 971.3H30.517V963.576H4.55902V971.3ZM30.517 1002.47H4.55902V995.652H30.517V1002.47ZM30.517 986.838V979.296H4.55902V986.838H16.4654H30.517Z" fill="#5D5D5A"/>
<path fill-rule="evenodd" clip-rule="evenodd" d="M100.196 663.803L76 638.418V1031H298C238.122 968.954 210.774 933.109 182.463 865.702L179.439 587.057L130.441 634.511V556.95H156.452V545.143H130.441V533.926H156.452V522.119H130.441V456H123.787V522.119H94.1471V533.926H123.787V545.143H94.1471V556.95H123.787V640.955L100.196 663.803ZM156.452 907.617C172.282 943.781 186.598 964.335 221.782 1001.48H110.48C111.949 944.801 123.416 923.899 156.452 907.617Z" fill="#FFA45C"/>
<path d="M649.833 688.185L617.402 676.84L610.195 694.011H591.195V1031H686.195V675L649.833 688.185Z" fill="#FFA45C"/>
<rect x="258.942" y="223.478" width="169.551" height="169.551" rx="6.5" fill="#FFCDAB" stroke="black"/>
<rect x="227.147" y="276.718" width="170.069" height="170.069" rx="6.5" transform="rotate(-30 227.147 276.718)" fill="#FFCDAB" stroke="black"/>
<rect x="228.158" y="339.978" width="170.069" height="170.069" rx="6.5" transform="rotate(-60 228.158 339.978)" fill="#FFCDAB" stroke="black"/>
<circle cx="343.718" cy="308.254" r="42.1378" fill="#FFF4E3" stroke="black"/>
<rect x="245.069" y="308.439" width="73.4213" height="4.22017" rx="2" transform="rotate(-60 245.069 308.439)" fill="#FFCDAB"/>
<rect width="49.5267" height="9.26532" transform="matrix(0.734706 -0.678386 -0.678386 -0.734706 265.233 263.889)" fill="#FFCDAB"/>
<rect width="50.0366" height="9.75323" rx="1" transform="matrix(0.708224 0.705988 0.705988 -0.708224 386.273 230.113)" fill="#FFCDAB"/>
<rect width="70.6058" height="9.26532" rx="1" transform="matrix(0.86328 0.504726 0.504726 -0.86328 339.679 217.059)" fill="#FFCDAB"/>
<rect x="428.676" y="309.566" width="13.8056" height="17.054" fill="#FFCDAB"/>
<path d="M206.974 551.258C235.936 551.258 259.448 528.692 259.448 500.814C259.448 472.936 235.936 450.371 206.974 450.371C178.012 450.371 154.5 472.936 154.5 500.814C154.5 528.692 178.012 551.258 206.974 551.258Z" fill="#5D5D5A" stroke="black"/>
<path d="M480.244 551.258C508.544 551.258 531.5 528.681 531.5 500.814C531.5 472.947 508.544 450.371 480.244 450.371C451.944 450.371 428.988 472.947 428.988 500.814C428.988 528.681 451.944 551.258 480.244 551.258Z" fill="#5D5D5A" stroke="black"/>
<rect x="182.923" y="357.792" width="320.965" height="118.754" rx="7.5" fill="#5D5D5A" stroke="black"/>
<mask id="path-22-outside-1_132_139" maskUnits="userSpaceOnUse" x="406.88" y="424.504" width="113.831" height="92.8885" fill="black">
<rect fill="white" x="406.88" y="424.504" width="113.831" height="92.8885"/>
<path d="M496.893 424.504L520.681 467.272L432.114 516.535L408.325 473.767L496.893 424.504Z"/>
</mask>
<path d="M496.893 424.504L520.681 467.272L432.114 516.535L408.325 473.767L496.893 424.504Z" fill="#5D5D5A"/>
<path d="M432.988 516.049L409.199 473.281L407.452 474.253L431.24 517.021L432.988 516.049Z" fill="black" mask="url(#path-22-outside-1_132_139)"/>
<mask id="path-24-outside-2_132_139" maskUnits="userSpaceOnUse" x="162.32" y="422.852" width="116.769" height="89.8662" fill="black">
<rect fill="white" x="162.32" y="422.852" width="116.769" height="89.8662"/>
<path d="M278.186 468.063L257.114 512.232L162.992 467.33L184.063 423.16L278.186 468.063Z"/>
</mask>
<path d="M278.186 468.063L257.114 512.232L162.992 467.33L184.063 423.16L278.186 468.063Z" fill="#5D5D5A"/>
<path d="M277.283 467.632L256.212 511.802L258.017 512.663L279.089 468.493L277.283 467.632Z" fill="black" mask="url(#path-24-outside-2_132_139)"/>
<mask id="path-26-outside-3_132_139" maskUnits="userSpaceOnUse" x="454.913" y="375.216" width="71.5077" height="113.245" fill="black">
<rect fill="white" x="454.913" y="375.216" width="71.5077" height="113.245"/>
<path d="M454.913 385.707L503.278 375.541L524.671 477.318L476.306 487.484L454.913 385.707Z"/>
</mask>
<path d="M454.913 385.707L503.278 375.541L524.671 477.318L476.306 487.484L454.913 385.707Z" fill="#5D5D5A"/>
<path d="M502.3 375.746L523.692 477.523L525.65 477.112L504.257 375.335L502.3 375.746Z" fill="black" mask="url(#path-26-outside-3_132_139)"/>
<mask id="path-28-outside-4_132_139" maskUnits="userSpaceOnUse" x="159.174" y="376.733" width="72.2224" height="113.524" fill="black">
<rect fill="white" x="159.174" y="376.733" width="72.2224" height="113.524"/>
<path d="M183.639 376.957L231.337 387.905L208.071 489.27L160.372 478.322L183.639 376.957Z"/>
</mask>
<path d="M183.639 376.957L231.337 387.905L208.071 489.27L160.372 478.322L183.639 376.957Z" fill="#5D5D5A"/>
<path d="M161.347 478.546L184.613 377.181L182.664 376.733L159.398 478.098L161.347 478.546Z" fill="black" mask="url(#path-28-outside-4_132_139)"/>
<rect x="286.247" y="326.932" width="46.4773" height="70.0281" rx="5.5" transform="rotate(90 286.247 326.932)" fill="#5D5D5A" stroke="black"/>
<mask id="path-31-outside-5_132_139" maskUnits="userSpaceOnUse" x="184.129" y="327.619" width="82.1375" height="83.2444" fill="black">
<rect fill="white" x="184.129" y="327.619" width="82.1375" height="83.2444"/>
<path d="M266.266 379.371L233.118 410.505L185.228 359.518L218.376 328.383L266.266 379.371Z"/>
</mask>
<path d="M266.266 379.371L233.118 410.505L185.228 359.518L218.376 328.383L266.266 379.371Z" fill="#5D5D5A"/>
<path d="M185.912 360.247L219.061 329.112L217.691 327.654L184.543 358.789L185.912 360.247Z" fill="black" mask="url(#path-31-outside-5_132_139)"/>
<mask id="path-33-outside-6_132_139" maskUnits="userSpaceOnUse" x="249.87" y="326.136" width="64.3568" height="64.3349" fill="black">
<rect fill="white" x="249.87" y="326.136" width="64.3568" height="64.3349"/>
<path d="M313.516 358.112L281.194 390.104L250.828 359.423L283.15 327.432L313.516 358.112Z"/>
</mask>
<path d="M313.516 358.112L281.194 390.104L250.828 359.423L283.15 327.432L313.516 358.112Z" fill="#5D5D5A"/>
<path d="M282.439 328.135L312.805 358.816L314.227 357.409L283.861 326.729L282.439 328.135Z" fill="black" mask="url(#path-33-outside-6_132_139)"/>
<rect x="470.593" y="326.932" width="46.4773" height="70.0281" rx="3.5" transform="rotate(90 470.593 326.932)" fill="#5D5D5A" stroke="black"/>
<mask id="path-36-outside-7_132_139" maskUnits="userSpaceOnUse" x="373.685" y="327.073" width="79.6252" height="77.0405" fill="black">
<rect fill="white" x="373.685" y="327.073" width="79.6252" height="77.0405"/>
<path d="M453.31 373.353L426.628 403.632L375.078 358.206L401.76 327.927L453.31 373.353Z"/>
</mask>
<path d="M453.31 373.353L426.628 403.632L375.078 358.206L401.76 327.927L453.31 373.353Z" fill="#5D5D5A"/>
<path d="M375.828 358.867L402.511 328.588L401.01 327.266L374.328 357.545L375.828 358.867Z" fill="black" mask="url(#path-36-outside-7_132_139)"/>
<mask id="path-38-outside-8_132_139" maskUnits="userSpaceOnUse" x="416.283" y="326.561" width="87.0219" height="86.9259" fill="black">
<rect fill="white" x="416.283" y="326.561" width="87.0219" height="86.9259"/>
<path d="M450.148 412.781C449.756 413.171 449.123 413.169 448.734 412.778L417.002 380.897C416.613 380.506 416.614 379.873 417.006 379.483L468.407 328.323C468.798 327.933 469.431 327.934 469.821 328.326L501.552 360.206C501.942 360.598 501.94 361.231 501.549 361.62L450.148 412.781Z"/>
</mask>
<path d="M450.148 412.781C449.756 413.171 449.123 413.169 448.734 412.778L417.002 380.897C416.613 380.506 416.614 379.873 417.006 379.483L468.407 328.323C468.798 327.933 469.431 327.934 469.821 328.326L501.552 360.206C501.942 360.598 501.94 361.231 501.549 361.62L450.148 412.781Z" fill="#5D5D5A"/>
<path d="M449.439 413.486L416.297 380.189L449.439 413.486ZM468.407 328.323C469.189 327.543 470.456 327.546 471.235 328.329L501.555 358.792C502.335 359.575 502.332 360.841 501.549 361.62C501.549 361.62 501.233 361.303 500.843 360.912L469.112 329.031C468.722 328.64 468.407 328.323 468.407 328.323ZM502.257 360.915L449.439 413.486L502.257 360.915ZM416.297 380.189L469.115 327.617L416.297 380.189Z" fill="black" mask="url(#path-38-outside-8_132_139)"/>
<mask id="path-40-outside-9_132_139" maskUnits="userSpaceOnUse" x="398.33" y="440.174" width="49.78" height="52.89" fill="black">
<rect fill="white" x="398.33" y="440.174" width="49.78" height="52.89"/>
<path d="M398.959 475.928L427.572 440.58L447.115 456.4L418.502 491.748L398.959 475.928Z"/>
</mask>
<path d="M398.959 475.928L427.572 440.58L447.115 456.4L418.502 491.748L398.959 475.928Z" fill="#5D5D5A"/>
<path d="M419.131 490.97L399.589 475.151L398.33 476.706L417.873 492.525L419.131 490.97Z" fill="black" mask="url(#path-40-outside-9_132_139)"/>
<mask id="path-42-outside-10_132_139" maskUnits="userSpaceOnUse" x="241.743" y="438.013" width="46.5689" height="52.2803" fill="black">
<rect fill="white" x="241.743" y="438.013" width="46.5689" height="52.2803"/>
<path d="M268.053 489.473L242.041 452.168L261.297 438.742L287.308 476.046L268.053 489.473Z"/>
</mask>
<path d="M268.053 489.473L242.041 452.168L261.297 438.742L287.308 476.046L268.053 489.473Z" fill="#5D5D5A"/>
<path d="M286.736 475.226L267.481 488.652L268.625 490.293L287.88 476.866L286.736 475.226Z" fill="black" mask="url(#path-42-outside-10_132_139)"/>
<circle cx="247.985" cy="386.309" r="26.8931" fill="#FFA45C" stroke="black"/>
<circle cx="381.98" cy="433.41" r="26.8931" fill="#FFA45C" stroke="black"/>
<rect x="297.429" y="410.578" width="13.9935" height="45.6652" rx="6.99676" fill="#FFA45C" stroke="black"/>
<rect x="281.353" y="440.619" width="13.9935" height="46.4538" rx="6.99676" transform="rotate(-89.634 281.353 440.619)" fill="#FFA45C" stroke="black"/>
<rect x="416.072" y="393.698" width="13.9935" height="19.5804" rx="6.99676" transform="rotate(-89.634 416.072 393.698)" fill="#FFA45C" stroke="black"/>
<rect x="353.46" y="400.205" width="13.1002" height="17.981" rx="6.55012" transform="rotate(-89.634 353.46 400.205)" fill="#FFA45C" stroke="black"/>
<rect x="318.54" y="400.124" width="13.1002" height="17.981" rx="6.55012" transform="rotate(-89.634 318.54 400.124)" fill="#FFA45C" stroke="black"/>
<rect x="450.099" y="393.708" width="13.9935" height="19.5804" rx="6.99676" transform="rotate(-89.634 450.099 393.708)" fill="#FFA45C" stroke="black"/>
<rect x="435.715" y="393.518" width="13.9935" height="19.5804" rx="6.99676" transform="rotate(0.691147 435.715 393.518)" fill="#FFA45C" stroke="black"/>
<rect x="435.715" y="359.41" width="13.9935" height="19.5804" rx="6.99676" transform="rotate(0.691147 435.715 359.41)" fill="#FFA45C" stroke="black"/>
<circle cx="247.579" cy="386.715" r="12.6814" fill="#5D5D5A" stroke="black"/>
<circle cx="381.574" cy="433.816" r="12.6814" fill="#5D5D5A" stroke="black"/>
<rect x="687" y="1032" width="687" height="412" transform="rotate(180 687 1032)" fill="url(#paint0_linear_132_139)"/>
</g>
<defs>
<linearGradient id="paint0_linear_132_139" x1="1030.5" y1="1032" x2="1030.5" y2="1444" gradientUnits="userSpaceOnUse">
<stop stop-color="#FFCDAB"/>
<stop offset="0.895833" stop-color="#EDF7FC" stop-opacity="0"/>
</linearGradient>
<clipPath id="clip0_132_139">
<rect width="687" height="1031" fill="white"/>
</clipPath>
</defs>
</svg>
