<svg width="687" height="1031" viewBox="0 0 687 1031" fill="none" xmlns="http://www.w3.org/2000/svg">
<g clip-path="url(#clip0_132_29)">
<rect width="687" height="1031" fill="#FFEFA0"/>
<path fill-rule="evenodd" clip-rule="evenodd" d="M157.114 37.5652C167.801 37.5646 247.712 37.5646 262.578 37.5652C277.444 37.5659 276.979 60.3567 262.578 60.3567H199.432C197.341 62.7345 197.978 67.5222 200.773 69.0173L202.642 69.0173C219.599 69.0175 218.902 89.0738 202.642 89.0738H173.215C169.884 91.5992 171.192 98.5174 176.024 98.6458C254.1 98.6457 345.947 98.6459 357.817 98.6462C378.26 98.6469 379.189 127.363 357.817 127.363H281.404C276.87 130.476 276.979 140.66 281.463 143.773C293.688 143.773 303.705 143.773 308.106 143.773C322.973 143.774 322.973 166.565 308.106 166.565H202.642C191.492 166.565 191.028 143.774 202.642 143.773C207.03 143.773 221.028 143.773 237.553 143.773C242.677 140.66 243.226 130.476 237.849 127.363H63.7278C45.8408 127.363 47.6995 98.6469 63.7278 98.6462C68.9024 98.646 99.2579 98.6459 138.684 98.6458C144.249 98.5193 145.08 91.5996 141.549 89.0738H78.5943C62.5657 89.0738 65.121 69.0176 78.5943 69.0173C88.3992 69.0171 140.647 69.0171 174.907 69.0172C177.159 67.522 177.461 62.7344 175.812 60.3567H157.114C148.286 60.3567 146.428 37.5659 157.114 37.5652Z" fill="#FFD57E"/>
<path fill-rule="evenodd" clip-rule="evenodd" d="M462.614 220.315C473.301 220.314 553.212 220.314 568.078 220.315C582.944 220.316 582.479 243.107 568.078 243.107H504.933C502.842 245.484 503.479 250.272 506.274 251.767L508.142 251.767C525.099 251.767 524.402 271.824 508.142 271.824H478.715C475.384 274.349 476.691 281.265 481.522 281.396C559.598 281.396 651.447 281.396 663.317 281.396C683.76 281.397 684.689 310.113 663.317 310.113H586.904C582.369 313.225 582.479 323.41 586.963 326.523C599.188 326.523 609.205 326.523 613.606 326.523C628.473 326.524 628.473 349.314 613.606 349.314H508.142C496.992 349.314 496.528 326.524 508.142 326.523C512.53 326.523 526.528 326.523 543.053 326.523C548.177 323.409 548.726 313.225 543.349 310.113H369.228C351.341 310.113 353.199 281.397 369.228 281.396C374.403 281.396 404.759 281.396 444.186 281.396C449.749 281.267 450.579 274.349 447.049 271.824H384.094C368.066 271.824 370.621 251.767 384.094 251.767C393.899 251.767 446.148 251.767 480.408 251.767C482.66 250.272 482.962 245.484 481.313 243.107H462.614C453.786 243.107 451.928 220.316 462.614 220.315Z" fill="#FFD57E"/>
<path d="M537.874 96.8399C522.544 94.9394 510.765 100.487 493 124.954C502.914 80.0903 518.988 68.6096 556.423 78.847C583.048 47.619 601.371 32.8238 636 8C617.264 41.562 607.639 63.205 581.552 96.8399C594.434 135.693 581.255 150.333 540.268 166C557.617 146.067 564.315 134.31 561.808 114.27C556.972 120.992 554.493 123.502 546.251 127.765C539.863 119.334 525.908 112.584 525.908 112.584C525.908 112.584 530.437 101.558 537.874 96.8399Z" fill="#FFD57E"/>
<path d="M30.5527 275.154C47.0747 269.894 56.7392 266.156 74.969 264.087C81.7326 250.011 89.7385 246.286 108.678 244.244C127.696 243.064 136.138 246.073 144.369 255.31C169.241 255.066 181.348 257.223 201.08 259.127C210.451 260.893 207.344 262.036 201.08 264.087C133.366 278.046 95.979 281.669 30.5527 279.352C24.1363 278.709 22.2234 278.086 30.5527 275.154Z" fill="#FFD57E"/>
<path d="M254.349 400.126C254.349 437.454 230.549 467.5 201.425 467.5C172.3 467.5 148.5 437.454 148.5 400.126C148.5 362.799 172.3 332.753 201.425 332.753C230.549 332.753 254.349 362.799 254.349 400.126Z" fill="#FCA652" stroke="black"/>
<path d="M547.5 400.126C547.5 437.454 523.7 467.5 494.576 467.5C465.451 467.5 441.651 437.454 441.651 400.126C441.651 362.799 465.451 332.753 494.576 332.753C523.7 332.753 547.5 362.799 547.5 400.126Z" fill="#FCA652" stroke="black"/>
<path d="M265.308 321.629C265.308 333.593 261.708 344.405 255.911 352.214C250.114 360.023 242.146 364.804 233.388 364.804C224.63 364.804 216.662 360.023 210.865 352.214C205.068 344.405 201.468 333.593 201.468 321.629C201.468 309.665 205.068 298.853 210.865 291.044C216.662 283.235 224.63 278.454 233.388 278.454C242.146 278.454 250.114 283.235 255.911 291.044C261.708 298.853 265.308 309.665 265.308 321.629Z" fill="#FCA652" stroke="black"/>
<path d="M468.961 349.959C468.961 361.923 465.361 372.735 459.564 380.544C453.767 388.353 445.799 393.134 437.041 393.134C428.283 393.134 420.315 388.353 414.518 380.544C408.721 372.735 405.121 361.923 405.121 349.959C405.121 337.995 408.721 327.183 414.518 319.374C420.315 311.564 428.283 306.784 437.041 306.784C445.799 306.784 453.767 311.564 459.564 319.374C465.361 327.183 468.961 337.995 468.961 349.959Z" fill="#FCA652" stroke="black"/>
<path d="M412.34 321.629C412.34 366.985 375.359 403.758 329.735 403.758C284.111 403.758 247.13 366.985 247.13 321.629C247.13 276.273 284.111 239.5 329.735 239.5C375.359 239.5 412.34 276.273 412.34 321.629Z" fill="#FCA652" stroke="black"/>
<rect x="196.402" y="342.876" width="287.671" height="125.124" fill="#FCA652"/>
<rect x="263.5" y="388.5" width="159" height="159" fill="#AC4B1C" stroke="#252525"/>
<rect x="278.5" y="403.5" width="129" height="129" fill="#FFEFA0" stroke="#252525"/>
<rect x="293.5" y="418.5" width="99" height="99" fill="#AC4B1C" stroke="#252525"/>
<line x1="298" y1="340" x2="298" y2="388" stroke="#AC4B1C" stroke-width="10"/>
<line x1="328" y1="340" x2="328" y2="388" stroke="#AC4B1C" stroke-width="10"/>
<line x1="357" y1="340" x2="357" y2="388" stroke="#AC4B1C" stroke-width="10"/>
<line x1="388" y1="388" x2="388" y2="340" stroke="#AC4B1C" stroke-width="10"/>
<line x1="298" y1="548" x2="298" y2="596" stroke="#AC4B1C" stroke-width="10"/>
<line x1="328" y1="548" x2="328" y2="596" stroke="#AC4B1C" stroke-width="10"/>
<line x1="357" y1="548" x2="357" y2="596" stroke="#AC4B1C" stroke-width="10"/>
<line x1="388" y1="596" x2="388" y2="548" stroke="#AC4B1C" stroke-width="10"/>
<line y1="-5" x2="47.753" y2="-5" transform="matrix(-0.999997 -0.00264174 0.000853751 -1 470 418.262)" stroke="#AC4B1C" stroke-width="10"/>
<line y1="-5" x2="47.753" y2="-5" transform="matrix(-0.999997 -0.00264174 0.000853751 -1 469.975 448.262)" stroke="#AC4B1C" stroke-width="10"/>
<line y1="-5" x2="47.753" y2="-5" transform="matrix(-0.999997 -0.00264174 0.000853751 -1 469.949 477.262)" stroke="#AC4B1C" stroke-width="10"/>
<line y1="-5" x2="47.753" y2="-5" transform="matrix(0.999996 0.002757 -0.000818059 1 422.162 518.136)" stroke="#AC4B1C" stroke-width="10"/>
<line y1="-5" x2="48.0644" y2="-5" transform="matrix(-1 0.000390331 -0.00201527 -0.999998 263.005 418.056)" stroke="#AC4B1C" stroke-width="10"/>
<line y1="-5" x2="48.0644" y2="-5" transform="matrix(-1 0.000285662 -0.00205096 -0.999998 263.066 448.056)" stroke="#AC4B1C" stroke-width="10"/>
<line y1="-5" x2="48.0644" y2="-5" transform="matrix(-1 0.000285662 -0.00205096 -0.999998 263.126 477.056)" stroke="#AC4B1C" stroke-width="10"/>
<line y1="-5" x2="48.0644" y2="-5" transform="matrix(1 -0.00028566 0.00205096 0.999998 215.146 518.07)" stroke="#AC4B1C" stroke-width="10"/>
<circle cx="208" cy="423" r="8.5" fill="#AC4B1C" stroke="#252525"/>
<circle cx="208" cy="453" r="8.5" fill="#AC4B1C" stroke="#252525"/>
<circle cx="208" cy="482" r="8.5" fill="#AC4B1C" stroke="#252525"/>
<circle cx="208" cy="513" r="8.5" fill="#AC4B1C" stroke="#252525"/>
<circle cx="298.505" cy="332.505" r="8.5" transform="rotate(176.69 298.505 332.505)" fill="#AC4B1C" stroke="#252525"/>
<circle cx="328.504" cy="332.646" r="8.5" transform="rotate(176.69 328.504 332.646)" fill="#AC4B1C" stroke="#252525"/>
<circle cx="357.504" cy="332.782" r="8.5" transform="rotate(176.69 357.504 332.782)" fill="#AC4B1C" stroke="#252525"/>
<circle cx="388.503" cy="332.928" r="8.5" transform="rotate(176.69 388.503 332.928)" fill="#AC4B1C" stroke="#252525"/>
<circle cx="298.505" cy="602.505" r="8.5" transform="rotate(176.69 298.505 602.505)" fill="#AC4B1C" stroke="#252525"/>
<circle cx="328.504" cy="602.646" r="8.5" transform="rotate(176.69 328.504 602.646)" fill="#AC4B1C" stroke="#252525"/>
<circle cx="357.504" cy="602.782" r="8.5" transform="rotate(176.69 357.504 602.782)" fill="#AC4B1C" stroke="#252525"/>
<circle cx="388.503" cy="602.928" r="8.5" transform="rotate(176.69 388.503 602.928)" fill="#AC4B1C" stroke="#252525"/>
<circle cx="476" cy="423" r="8.5" fill="#AC4B1C" stroke="#252525"/>
<circle cx="476" cy="453" r="8.5" fill="#AC4B1C" stroke="#252525"/>
<circle cx="476" cy="482" r="8.5" fill="#AC4B1C" stroke="#252525"/>
<circle cx="476" cy="513" r="8.5" fill="#AC4B1C" stroke="#252525"/>
<path d="M535.501 656.44C526.174 621.921 514.381 610.894 489.334 596.308H604.752C577.451 616.159 565.948 628.659 560.636 656.44V1031H535.501V656.44Z" fill="#AC4B1C"/>
<ellipse cx="551.402" cy="575.736" rx="121.402" ry="23.7364" fill="#AC4B1C"/>
<path fill-rule="evenodd" clip-rule="evenodd" d="M17.5319 432V488.771H21.754V497.264H37.5865V502.628L47.086 503.075V506.651L39.6975 511.569L86.1396 530.343C94.2508 533.212 96.0285 535.168 97.7502 538.837V543.307L108.833 545.989C111.992 547.11 111.44 547.556 108.833 548.224L95.1114 551.8C95.9888 555.337 92.7581 557.397 88.3492 560.208L88.3481 560.209L88.3474 560.21C87.6379 560.662 86.8979 561.134 86.1396 561.634C93.5251 561.616 95.2914 562.573 95.1114 565.657C95.5221 569.572 93.4891 570.604 86.1396 570.575H57.6411C42.5384 633.387 35.0753 668.941 33.8922 736.417C35.5675 852.95 45.095 917.152 67.1406 1031H42.7798H31.517V1010.46H5.55902V1031H-3.77298H-30.4935C-8.97903 920.296 -4.56851 854.901 -0.939369 736.417C-3.7206 671.218 -11.3746 635.035 -26.2715 570.575H-53.1868C-60.262 570.457 -62.2151 570.096 -62.1583 566.104C-62.0574 563.125 -61.6456 562.093 -55.8256 561.634C-60.4933 558.498 -62.3186 556.426 -63.2141 551.8L-76.4078 548.224C-78.2938 547.41 -78.7551 546.93 -76.4078 545.989L-66.3806 542.413V538.837C-63.8799 534.852 -61.6291 532.968 -55.8256 530.343L-7.27239 511.569L-14.1332 506.651V503.075H-7.27239V497.264H8.56017V488.771H12.7822V432H17.5319ZM-38.9371 530.343C-49.0303 533.675 -52.0406 535.534 -53.1868 538.837H86.1396C84.1264 535.454 79.6674 533.603 68.7243 530.343H-38.9371ZM-53.1868 551.8C-53.7852 555.634 -50.8858 557.788 -43.6869 561.634H75.585C83.4633 557.727 85.8893 555.568 86.1396 551.8H-53.1868ZM9.28699 662.66L8.56017 570.575H22.8097L22.8077 662.66C18.0688 686.054 14.7212 687.576 9.28699 662.66ZM29.3107 611.087C31.1748 598.405 33.6125 586.282 37.0592 570.575H29.9344L29.3107 611.087ZM-5.16097 570.575H2.22755V611.087C0.569794 599.162 -1.60226 586.828 -5.16097 570.575ZM17.2509 858.533C15.9328 861.627 14.8814 864.136 14.0329 866.918V939.587H22.775L20.7802 866.918C19.8067 864.144 18.6457 861.407 17.2509 858.533ZM5.55902 939.587L10.6005 901.514V939.587H5.55902ZM31.517 939.587L25.9393 901.514L27.146 939.587H31.517ZM31.517 954.944H5.55902V946.947H31.517V954.944ZM5.55902 971.3H31.517V963.576H5.55902V971.3ZM31.517 1002.47H5.55902V995.652H31.517V1002.47ZM31.517 986.838V979.296H5.55902V986.838H17.4654H31.517Z" fill="#AC4B1C"/>
<path fill-rule="evenodd" clip-rule="evenodd" d="M101.196 663.803L77 638.418V1031H299C239.122 968.954 211.774 933.109 183.463 865.702L180.439 587.057L131.441 634.511V556.95H157.452V545.143H131.441V533.926H157.452V522.119H131.441V456H124.787V522.119H95.1471V533.926H124.787V545.143H95.1471V556.95H124.787V640.955L101.196 663.803ZM157.452 907.617C173.282 943.781 187.598 964.335 222.782 1001.48H111.48C112.949 944.801 124.416 923.899 157.452 907.617Z" fill="#FCA652"/>
<path d="M650.833 688.185L618.402 676.84L611.195 694.011H592.195V1031H687.195V675L650.833 688.185Z" fill="#FCA652"/>
<rect x="687" y="1031" width="687" height="681" transform="rotate(180 687 1031)" fill="url(#paint0_linear_132_29)"/>
</g>
<defs>
<linearGradient id="paint0_linear_132_29" x1="1030.5" y1="1031" x2="1030.5" y2="1712" gradientUnits="userSpaceOnUse">
<stop offset="0.109375" stop-color="#FFD57E"/>
<stop offset="0.895833" stop-color="#EDF7FC" stop-opacity="0"/>
</linearGradient>
<clipPath id="clip0_132_29">
<rect width="687" height="1031" fill="white"/>
</clipPath>
</defs>
</svg>
