<svg width="687" height="1031" viewBox="0 0 687 1031" fill="none" xmlns="http://www.w3.org/2000/svg">
<g clip-path="url(#clip0_132_207)">
<rect width="687" height="1031" fill="#EEFBF9"/>
<path fill-rule="evenodd" clip-rule="evenodd" d="M152.114 37.5652C162.801 37.5646 242.712 37.5646 257.578 37.5652C272.444 37.5659 271.979 60.3567 257.578 60.3567H194.432C192.341 62.7345 192.978 67.5222 195.773 69.0173L197.642 69.0173C214.599 69.0175 213.902 89.0738 197.642 89.0738H168.215C164.884 91.5992 166.192 98.5174 171.024 98.6458C249.1 98.6457 340.947 98.6459 352.817 98.6462C373.26 98.6469 374.189 127.363 352.817 127.363H276.404C271.87 130.476 271.979 140.66 276.463 143.773C288.688 143.773 298.705 143.773 303.106 143.773C317.973 143.774 317.973 166.565 303.106 166.565H197.642C186.492 166.565 186.028 143.774 197.642 143.773C202.03 143.773 216.028 143.773 232.553 143.773C237.677 140.66 238.226 130.476 232.849 127.363H58.7278C40.8408 127.363 42.6995 98.6469 58.7278 98.6462C63.9024 98.646 94.2579 98.6459 133.684 98.6458C139.249 98.5193 140.08 91.5996 136.549 89.0738H73.5943C57.5657 89.0738 60.121 69.0176 73.5943 69.0173C83.3992 69.0171 135.647 69.0171 169.907 69.0172C172.159 67.522 172.461 62.7344 170.812 60.3567H152.114C143.286 60.3567 141.428 37.5659 152.114 37.5652Z" fill="#BCEAE4"/>
<path fill-rule="evenodd" clip-rule="evenodd" d="M457.614 220.315C468.301 220.314 548.212 220.314 563.078 220.315C577.944 220.316 577.479 243.107 563.078 243.107H499.933C497.842 245.484 498.479 250.272 501.274 251.767L503.142 251.767C520.099 251.767 519.402 271.824 503.142 271.824H473.715C470.384 274.349 471.691 281.265 476.522 281.396C554.598 281.396 646.447 281.396 658.317 281.396C678.76 281.397 679.689 310.113 658.317 310.113H581.904C577.369 313.225 577.479 323.41 581.963 326.523C594.188 326.523 604.205 326.523 608.606 326.523C623.473 326.524 623.473 349.314 608.606 349.314H503.142C491.992 349.314 491.528 326.524 503.142 326.523C507.53 326.523 521.528 326.523 538.053 326.523C543.177 323.409 543.726 313.225 538.349 310.113H364.228C346.341 310.113 348.199 281.397 364.228 281.396C369.403 281.396 399.759 281.396 439.186 281.396C444.749 281.267 445.579 274.349 442.049 271.824H379.094C363.066 271.824 365.621 251.767 379.094 251.767C388.899 251.767 441.148 251.767 475.408 251.767C477.66 250.272 477.962 245.484 476.313 243.107H457.614C448.786 243.107 446.928 220.316 457.614 220.315Z" fill="#BCEAE4"/>
<path d="M532.874 96.8399C517.544 94.9394 505.765 100.487 488 124.954C497.914 80.0903 513.988 68.6096 551.423 78.847C578.048 47.619 596.371 32.8238 631 8C612.264 41.562 602.639 63.205 576.552 96.8399C589.434 135.693 576.255 150.333 535.268 166C552.617 146.067 559.315 134.31 556.808 114.27C551.972 120.992 549.493 123.502 541.251 127.765C534.863 119.334 520.908 112.584 520.908 112.584C520.908 112.584 525.437 101.558 532.874 96.8399Z" fill="#BCEAE4"/>
<path d="M25.5527 275.154C42.0747 269.894 51.7392 266.156 69.969 264.087C76.7326 250.011 84.7385 246.286 103.678 244.244C122.696 243.064 131.138 246.073 139.369 255.31C164.241 255.066 176.348 257.223 196.08 259.127C205.451 260.893 202.344 262.036 196.08 264.087C128.366 278.046 90.979 281.669 25.5527 279.352C19.1363 278.709 17.2234 278.086 25.5527 275.154Z" fill="#BCEAE4"/>
<path d="M534.501 656.44C525.174 621.921 513.381 610.894 488.333 596.308H603.751C576.451 616.159 564.947 628.659 559.636 656.44V1031H534.501V656.44Z" fill="#8293E7"/>
<ellipse cx="550.402" cy="575.736" rx="121.402" ry="23.7364" fill="#8293E7"/>
<path fill-rule="evenodd" clip-rule="evenodd" d="M16.5319 432V488.771H20.754V497.264H36.5865V502.628L46.086 503.075V506.651L38.6975 511.569L85.1396 530.343C93.2508 533.212 95.0285 535.168 96.7502 538.837V543.307L107.833 545.989C110.992 547.11 110.44 547.556 107.833 548.224L94.1114 551.8C94.9888 555.337 91.7581 557.397 87.3492 560.208L87.3481 560.209L87.3474 560.21C86.6379 560.662 85.8979 561.134 85.1396 561.634C92.5251 561.616 94.2914 562.573 94.1114 565.657C94.5221 569.572 92.4891 570.604 85.1396 570.575H56.6411C41.5384 633.387 34.0753 668.941 32.8922 736.417C34.5675 852.95 44.095 917.152 66.1406 1031H41.7798H30.517V1010.46H4.55902V1031H-4.77298H-31.4935C-9.97903 920.296 -5.56851 854.901 -1.93937 736.417C-4.7206 671.218 -12.3746 635.035 -27.2715 570.575H-54.1868C-61.262 570.457 -63.2151 570.096 -63.1583 566.104C-63.0574 563.125 -62.6456 562.093 -56.8256 561.634C-61.4933 558.498 -63.3186 556.426 -64.2141 551.8L-77.4078 548.224C-79.2938 547.41 -79.7551 546.93 -77.4078 545.989L-67.3806 542.413V538.837C-64.8799 534.852 -62.6291 532.968 -56.8256 530.343L-8.27239 511.569L-15.1332 506.651V503.075H-8.27239V497.264H7.56017V488.771H11.7822V432H16.5319ZM-39.9371 530.343C-50.0303 533.675 -53.0406 535.534 -54.1868 538.837H85.1396C83.1264 535.454 78.6674 533.603 67.7243 530.343H-39.9371ZM-54.1868 551.8C-54.7852 555.634 -51.8858 557.788 -44.6869 561.634H74.585C82.4633 557.727 84.8893 555.568 85.1396 551.8H-54.1868ZM8.28699 662.66L7.56017 570.575H21.8097L21.8077 662.66C17.0688 686.054 13.7212 687.576 8.28699 662.66ZM28.3107 611.087C30.1748 598.405 32.6125 586.282 36.0592 570.575H28.9344L28.3107 611.087ZM-6.16097 570.575H1.22755V611.087C-0.430206 599.162 -2.60226 586.828 -6.16097 570.575ZM16.2509 858.533C14.9328 861.627 13.8814 864.136 13.0329 866.918V939.587H21.775L19.7802 866.918C18.8067 864.144 17.6457 861.407 16.2509 858.533ZM4.55902 939.587L9.60046 901.514V939.587H4.55902ZM30.517 939.587L24.9393 901.514L26.146 939.587H30.517ZM30.517 954.944H4.55902V946.947H30.517V954.944ZM4.55902 971.3H30.517V963.576H4.55902V971.3ZM30.517 1002.47H4.55902V995.652H30.517V1002.47ZM30.517 986.838V979.296H4.55902V986.838H16.4654H30.517Z" fill="#8293E7"/>
<path fill-rule="evenodd" clip-rule="evenodd" d="M100.196 663.803L76 638.418V1031H298C238.122 968.954 210.774 933.109 182.463 865.702L179.439 587.057L130.441 634.511V556.95H156.452V545.143H130.441V533.926H156.452V522.119H130.441V456H123.787V522.119H94.1471V533.926H123.787V545.143H94.1471V556.95H123.787V640.955L100.196 663.803ZM156.452 907.617C172.282 943.781 186.598 964.335 221.782 1001.48H110.48C111.949 944.801 123.416 923.899 156.452 907.617Z" fill="#B5C7F0"/>
<path d="M649.833 688.185L617.402 676.84L610.195 694.011H591.195V1031H686.195V675L649.833 688.185Z" fill="#B5C7F0"/>
<rect x="687" y="1031" width="687" height="412" transform="rotate(180 687 1031)" fill="url(#paint0_linear_132_207)"/>
<path d="M433.393 299.986C433.393 312.485 430.862 321.454 426.339 327.897C421.82 334.335 415.271 338.311 407.119 340.747C398.957 343.186 389.214 344.074 378.348 344.347C371.448 344.52 364.121 344.446 356.474 344.369C352.072 344.325 347.563 344.279 342.968 344.279C338.373 344.279 333.865 344.325 329.462 344.369C321.815 344.446 314.488 344.52 307.589 344.347C296.722 344.074 286.979 343.186 278.817 340.747C270.665 338.311 264.117 334.335 259.598 327.897C255.075 321.454 252.543 312.485 252.543 299.986C252.543 250.012 293.028 209.5 342.968 209.5C392.908 209.5 433.393 250.012 433.393 299.986Z" fill="#8293E7" stroke="black"/>
<path d="M405.744 294.164C405.744 302.606 404.016 308.642 400.947 312.969C397.882 317.291 393.436 319.968 387.88 321.611C382.316 323.256 375.666 323.857 368.235 324.042C363.516 324.159 358.508 324.109 353.278 324.057C350.266 324.027 347.179 323.996 344.032 323.996C340.884 323.996 337.798 324.027 334.785 324.057C329.555 324.109 324.547 324.159 319.829 324.042C312.397 323.857 305.748 323.256 300.183 321.611C294.628 319.968 290.182 317.291 287.117 312.969C284.048 308.642 282.32 302.606 282.32 294.164C282.32 260.417 309.945 233.051 344.032 233.051C378.119 233.051 405.744 260.417 405.744 294.164Z" fill="#EEFBF9" stroke="black"/>
<rect x="258.924" y="352.946" width="174.47" height="200.253" rx="10.5" fill="#8293E7" stroke="black"/>
<rect x="-0.183532" y="0.684963" width="38.2169" height="72.9874" rx="10.5" transform="matrix(0.497526 0.867449 -0.86459 0.502478 240.279 355.402)" fill="#8293E7" stroke="black"/>
<rect x="0.681058" y="-0.182486" width="38.2169" height="72.9874" rx="10.5" transform="matrix(0.497526 -0.867449 0.86459 0.502478 434.14 386.615)" fill="#8293E7" stroke="black"/>
<mask id="path-16-inside-1_132_207" fill="white">
<path d="M188.43 458.593C191.755 455.456 194.201 451.494 195.522 447.105C196.844 442.715 196.994 438.053 195.958 433.587C194.921 429.12 192.735 425.007 189.619 421.661C186.503 418.315 182.567 415.853 178.206 414.524C173.845 413.195 169.213 413.045 164.776 414.089C160.339 415.133 156.254 417.335 152.93 420.472C149.607 423.61 147.162 427.573 145.843 431.963C144.523 436.353 144.375 441.015 145.414 445.481L157.525 442.628C156.984 440.303 157.061 437.875 157.748 435.589C158.435 433.303 159.708 431.239 161.439 429.605C163.17 427.971 165.297 426.825 167.608 426.281C169.918 425.737 172.33 425.815 174.601 426.508C176.872 427.2 178.922 428.482 180.545 430.224C182.167 431.967 183.306 434.108 183.845 436.434C184.385 438.76 184.307 441.188 183.619 443.474C182.931 445.76 181.657 447.823 179.925 449.456L188.43 458.593Z"/>
</mask>
<path d="M188.43 458.593C191.755 455.456 194.201 451.494 195.522 447.105C196.844 442.715 196.994 438.053 195.958 433.587C194.921 429.12 192.735 425.007 189.619 421.661C186.503 418.315 182.567 415.853 178.206 414.524C173.845 413.195 169.213 413.045 164.776 414.089C160.339 415.133 156.254 417.335 152.93 420.472C149.607 423.61 147.162 427.573 145.843 431.963C144.523 436.353 144.375 441.015 145.414 445.481L157.525 442.628C156.984 440.303 157.061 437.875 157.748 435.589C158.435 433.303 159.708 431.239 161.439 429.605C163.17 427.971 165.297 426.825 167.608 426.281C169.918 425.737 172.33 425.815 174.601 426.508C176.872 427.2 178.922 428.482 180.545 430.224C182.167 431.967 183.306 434.108 183.845 436.434C184.385 438.76 184.307 441.188 183.619 443.474C182.931 445.76 181.657 447.823 179.925 449.456L188.43 458.593Z" fill="#8293E7" stroke="black" stroke-width="2" mask="url(#path-16-inside-1_132_207)"/>
<mask id="path-17-inside-2_132_207" fill="white">
<path d="M548.068 441.392C548.933 436.889 548.606 432.235 547.119 427.9C545.632 423.565 543.037 419.7 539.596 416.694C536.154 413.688 531.987 411.647 527.514 410.776C523.04 409.906 518.418 410.236 514.111 411.734C509.805 413.232 505.966 415.845 502.98 419.31C499.995 422.775 497.968 426.97 497.104 431.473C496.24 435.976 496.57 440.629 498.058 444.964C499.547 449.299 502.144 453.163 505.587 456.167L513.734 446.706C511.941 445.142 510.589 443.13 509.814 440.873C509.039 438.615 508.867 436.192 509.317 433.847C509.767 431.502 510.822 429.317 512.377 427.513C513.932 425.709 515.931 424.348 518.173 423.568C520.416 422.788 522.823 422.616 525.153 423.069C527.482 423.523 529.652 424.586 531.444 426.151C533.236 427.716 534.588 429.729 535.362 431.986C536.137 434.244 536.307 436.667 535.856 439.012L548.068 441.392Z"/>
</mask>
<path d="M548.068 441.392C548.933 436.889 548.606 432.235 547.119 427.9C545.632 423.565 543.037 419.7 539.596 416.694C536.154 413.688 531.987 411.647 527.514 410.776C523.04 409.906 518.418 410.236 514.111 411.734C509.805 413.232 505.966 415.845 502.98 419.31C499.995 422.775 497.968 426.97 497.104 431.473C496.24 435.976 496.57 440.629 498.058 444.964C499.547 449.299 502.144 453.163 505.587 456.167L513.734 446.706C511.941 445.142 510.589 443.13 509.814 440.873C509.039 438.615 508.867 436.192 509.317 433.847C509.767 431.502 510.822 429.317 512.377 427.513C513.932 425.709 515.931 424.348 518.173 423.568C520.416 422.788 522.823 422.616 525.153 423.069C527.482 423.523 529.652 424.586 531.444 426.151C533.236 427.716 534.588 429.729 535.362 431.986C536.137 434.244 536.307 436.667 535.856 439.012L548.068 441.392Z" fill="#8293E7" stroke="black" stroke-width="2" mask="url(#path-17-inside-2_132_207)"/>
<rect x="235.528" y="563.834" width="219.135" height="54.6658" rx="10.5" fill="#8293E7" stroke="black"/>
<rect x="292.954" y="400.048" width="105.345" height="106.05" rx="10.5" fill="#EEFBF9" stroke="black"/>
<path d="M327.42 468.958C326.113 468.692 324.993 468.345 324.06 467.918C323.127 467.518 322.353 467.012 321.74 466.398C321.153 465.785 320.713 465.052 320.42 464.198C320.153 463.345 320.02 462.358 320.02 461.238L320.06 457.438C320.06 455.892 319.713 454.692 319.02 453.838C318.353 452.958 317.393 452.505 316.14 452.478H314.42V449.438H316.22C317.473 449.412 318.42 448.972 319.06 448.118C319.727 447.265 320.06 446.052 320.06 444.478L320.02 440.678C320.02 438.492 320.593 436.798 321.74 435.598C322.887 434.398 324.78 433.518 327.42 432.958L328.14 435.718C326.993 436.092 326.087 436.492 325.42 436.918C324.78 437.345 324.327 437.905 324.06 438.598C323.793 439.265 323.66 440.145 323.66 441.238L323.74 445.038C323.74 446.585 323.38 447.865 322.66 448.878C321.967 449.892 320.953 450.598 319.62 450.998L319.58 450.878C320.94 451.332 321.967 452.065 322.66 453.078C323.38 454.092 323.74 455.358 323.74 456.878L323.66 460.678C323.66 461.772 323.793 462.652 324.06 463.318C324.327 463.985 324.78 464.532 325.42 464.958C326.087 465.385 326.993 465.798 328.14 466.198L327.42 468.958ZM333.665 461.398C332.785 461.398 332.105 461.145 331.625 460.638C331.145 460.105 330.905 459.358 330.905 458.398C330.905 457.518 331.159 456.798 331.665 456.238C332.172 455.678 332.839 455.398 333.665 455.398C334.545 455.398 335.225 455.665 335.705 456.198C336.185 456.705 336.425 457.438 336.425 458.398C336.425 459.278 336.172 459.998 335.665 460.558C335.159 461.118 334.492 461.398 333.665 461.398ZM342.767 461.398C341.887 461.398 341.207 461.145 340.727 460.638C340.247 460.105 340.007 459.358 340.007 458.398C340.007 457.518 340.26 456.798 340.767 456.238C341.274 455.678 341.94 455.398 342.767 455.398C343.647 455.398 344.327 455.665 344.807 456.198C345.287 456.705 345.527 457.438 345.527 458.398C345.527 459.278 345.274 459.998 344.767 460.558C344.26 461.118 343.594 461.398 342.767 461.398ZM351.869 461.398C350.989 461.398 350.309 461.145 349.829 460.638C349.349 460.105 349.109 459.358 349.109 458.398C349.109 457.518 349.362 456.798 349.869 456.238C350.375 455.678 351.042 455.398 351.869 455.398C352.749 455.398 353.429 455.665 353.909 456.198C354.389 456.705 354.629 457.438 354.629 458.398C354.629 459.278 354.375 459.998 353.869 460.558C353.362 461.118 352.695 461.398 351.869 461.398ZM358.09 468.958L357.37 466.198C358.517 465.825 359.41 465.425 360.05 464.998C360.69 464.572 361.143 464.012 361.41 463.318C361.703 462.652 361.85 461.772 361.85 460.678L361.77 456.878C361.77 455.332 362.117 454.052 362.81 453.038C363.53 452.025 364.557 451.318 365.89 450.918L365.93 451.038C364.57 450.585 363.53 449.852 362.81 448.838C362.117 447.825 361.77 446.558 361.77 445.038L361.85 441.238C361.85 440.145 361.717 439.265 361.45 438.598C361.183 437.932 360.73 437.385 360.09 436.958C359.45 436.505 358.543 436.092 357.37 435.718L358.09 432.958C359.397 433.225 360.517 433.572 361.45 433.998C362.383 434.398 363.143 434.905 363.73 435.518C364.343 436.132 364.783 436.865 365.05 437.718C365.343 438.572 365.49 439.558 365.49 440.678L365.45 444.478C365.45 446.025 365.783 447.238 366.45 448.118C367.143 448.972 368.117 449.412 369.37 449.438H371.09V452.478H369.29C368.037 452.505 367.077 452.945 366.41 453.798C365.77 454.652 365.45 455.865 365.45 457.438L365.49 461.238C365.49 463.425 364.917 465.118 363.77 466.318C362.623 467.518 360.73 468.398 358.09 468.958Z" fill="black"/>
</g>
<defs>
<linearGradient id="paint0_linear_132_207" x1="1030.5" y1="1031" x2="1030.5" y2="1443" gradientUnits="userSpaceOnUse">
<stop stop-color="#BCEAE4"/>
<stop offset="0.895833" stop-color="#EDF7FC" stop-opacity="0"/>
</linearGradient>
<clipPath id="clip0_132_207">
<rect width="687" height="1031" fill="white"/>
</clipPath>
</defs>
</svg>
