<svg width="378" height="361" viewBox="0 0 378 361" fill="none" xmlns="http://www.w3.org/2000/svg">
<rect x="104.942" y="32.4784" width="169.551" height="169.551" rx="6.5" fill="#F0DED2" stroke="black"/>
<rect x="73.1474" y="85.7176" width="170.069" height="170.069" rx="6.5" transform="rotate(-30 73.1474 85.7176)" fill="#F0DED2" stroke="black"/>
<rect x="74.1581" y="148.978" width="170.069" height="170.069" rx="6.5" transform="rotate(-60 74.1581 148.978)" fill="#F0DED2" stroke="black"/>
<circle cx="189.718" cy="117.254" r="42.1378" fill="#FFF4E3" stroke="black"/>
<rect x="91.0688" y="117.439" width="73.4213" height="4.22017" rx="2" transform="rotate(-60 91.0688 117.439)" fill="#F0DED2"/>
<rect width="49.5267" height="9.26532" transform="matrix(0.734706 -0.678386 -0.678386 -0.734706 111.233 72.8893)" fill="#F0DED2"/>
<rect width="50.0366" height="9.75323" rx="1" transform="matrix(0.708224 0.705988 0.705988 -0.708224 232.273 39.1128)" fill="#F0DED2"/>
<rect width="70.6058" height="9.26532" rx="1" transform="matrix(0.86328 0.504726 0.504726 -0.86328 185.679 26.0594)" fill="#F0DED2"/>
<rect x="274.676" y="118.566" width="13.8056" height="17.054" fill="#F0DED2"/>
<path d="M52.9741 360.258C81.9358 360.258 105.448 337.692 105.448 309.814C105.448 281.936 81.9358 259.371 52.9741 259.371C24.0124 259.371 0.5 281.936 0.5 309.814C0.5 337.692 24.0124 360.258 52.9741 360.258Z" fill="#8293E7" stroke="#B53030"/>
<path d="M326.244 360.258C354.544 360.258 377.5 337.681 377.5 309.814C377.5 281.947 354.544 259.371 326.244 259.371C297.944 259.371 274.988 281.947 274.988 309.814C274.988 337.681 297.944 360.258 326.244 360.258Z" fill="#8293E7" stroke="#B53030"/>
<rect x="28.9233" y="166.792" width="320.965" height="118.754" rx="7.5" fill="#8293E7" stroke="#B53030"/>
<mask id="path-13-outside-1_209_1147" maskUnits="userSpaceOnUse" x="252.88" y="233.504" width="113.831" height="92.8885" fill="black">
<rect fill="white" x="252.88" y="233.504" width="113.831" height="92.8885"/>
<path d="M342.893 233.504L366.681 276.272L278.114 325.535L254.325 282.767L342.893 233.504Z"/>
</mask>
<path d="M342.893 233.504L366.681 276.272L278.114 325.535L254.325 282.767L342.893 233.504Z" fill="#8293E7"/>
<path d="M278.988 325.049L255.199 282.281L253.452 283.253L277.24 326.021L278.988 325.049Z" fill="#B53030" mask="url(#path-13-outside-1_209_1147)"/>
<mask id="path-15-outside-2_209_1147" maskUnits="userSpaceOnUse" x="8.31961" y="231.852" width="116.769" height="89.8662" fill="black">
<rect fill="white" x="8.31961" y="231.852" width="116.769" height="89.8662"/>
<path d="M124.186 277.063L103.114 321.232L8.99164 276.33L30.0634 232.16L124.186 277.063Z"/>
</mask>
<path d="M124.186 277.063L103.114 321.232L8.99164 276.33L30.0634 232.16L124.186 277.063Z" fill="#8293E7"/>
<path d="M123.283 276.632L102.212 320.802L104.017 321.663L125.089 277.493L123.283 276.632Z" fill="#B53030" mask="url(#path-15-outside-2_209_1147)"/>
<mask id="path-17-outside-3_209_1147" maskUnits="userSpaceOnUse" x="300.913" y="184.216" width="71.5077" height="113.245" fill="black">
<rect fill="white" x="300.913" y="184.216" width="71.5077" height="113.245"/>
<path d="M300.913 194.707L349.278 184.541L370.671 286.318L322.306 296.484L300.913 194.707Z"/>
</mask>
<path d="M300.913 194.707L349.278 184.541L370.671 286.318L322.306 296.484L300.913 194.707Z" fill="#8293E7"/>
<path d="M348.3 184.746L369.692 286.524L371.65 286.112L350.257 184.335L348.3 184.746Z" fill="#B53030" mask="url(#path-17-outside-3_209_1147)"/>
<mask id="path-19-outside-4_209_1147" maskUnits="userSpaceOnUse" x="5.17435" y="185.733" width="72.2224" height="113.524" fill="black">
<rect fill="white" x="5.17435" y="185.733" width="72.2224" height="113.524"/>
<path d="M29.6387 185.957L77.337 196.905L54.0708 298.27L6.37248 287.322L29.6387 185.957Z"/>
</mask>
<path d="M29.6387 185.957L77.337 196.905L54.0708 298.27L6.37248 287.322L29.6387 185.957Z" fill="#8293E7"/>
<path d="M7.34713 287.546L30.6133 186.181L28.664 185.733L5.39782 287.098L7.34713 287.546Z" fill="#B53030" mask="url(#path-19-outside-4_209_1147)"/>
<rect x="132.247" y="135.932" width="46.4773" height="70.0281" rx="5.5" transform="rotate(90 132.247 135.932)" fill="#8293E7" stroke="#B53030"/>
<mask id="path-22-outside-5_209_1147" maskUnits="userSpaceOnUse" x="30.1286" y="136.619" width="82.1375" height="83.2444" fill="black">
<rect fill="white" x="30.1286" y="136.619" width="82.1375" height="83.2444"/>
<path d="M112.266 188.371L79.1177 219.505L31.2276 168.518L64.376 137.383L112.266 188.371Z"/>
</mask>
<path d="M112.266 188.371L79.1177 219.505L31.2276 168.518L64.376 137.383L112.266 188.371Z" fill="#8293E7"/>
<path d="M31.9122 169.247L65.0606 138.112L63.6914 136.654L30.543 167.789L31.9122 169.247Z" fill="#B53030" mask="url(#path-22-outside-5_209_1147)"/>
<mask id="path-24-outside-6_209_1147" maskUnits="userSpaceOnUse" x="95.8701" y="135.136" width="64.3568" height="64.3349" fill="black">
<rect fill="white" x="95.8701" y="135.136" width="64.3568" height="64.3349"/>
<path d="M159.516 167.113L127.194 199.104L96.8276 168.423L129.15 136.432L159.516 167.113Z"/>
</mask>
<path d="M159.516 167.113L127.194 199.104L96.8276 168.423L129.15 136.432L159.516 167.113Z" fill="#8293E7"/>
<path d="M128.439 137.135L158.805 167.816L160.227 166.409L129.861 135.729L128.439 137.135Z" fill="#B53030" mask="url(#path-24-outside-6_209_1147)"/>
<rect x="316.593" y="135.932" width="46.4773" height="70.0281" rx="3.5" transform="rotate(90 316.593 135.932)" fill="#8293E7" stroke="#B53030"/>
<mask id="path-27-outside-7_209_1147" maskUnits="userSpaceOnUse" x="219.685" y="136.073" width="79.6252" height="77.0405" fill="black">
<rect fill="white" x="219.685" y="136.073" width="79.6252" height="77.0405"/>
<path d="M299.31 182.353L272.628 212.632L221.078 167.206L247.76 136.927L299.31 182.353Z"/>
</mask>
<path d="M299.31 182.353L272.628 212.632L221.078 167.206L247.76 136.927L299.31 182.353Z" fill="#8293E7"/>
<path d="M221.828 167.867L248.511 137.588L247.01 136.266L220.328 166.545L221.828 167.867Z" fill="#B53030" mask="url(#path-27-outside-7_209_1147)"/>
<mask id="path-29-outside-8_209_1147" maskUnits="userSpaceOnUse" x="262.283" y="135.561" width="87.0219" height="86.9259" fill="black">
<rect fill="white" x="262.283" y="135.561" width="87.0219" height="86.9259"/>
<path d="M296.148 221.781C295.756 222.171 295.123 222.169 294.734 221.778L263.002 189.897C262.613 189.506 262.614 188.873 263.006 188.483L314.407 137.323C314.798 136.933 315.431 136.934 315.821 137.326L347.552 169.206C347.942 169.598 347.94 170.231 347.549 170.62L296.148 221.781Z"/>
</mask>
<path d="M296.148 221.781C295.756 222.171 295.123 222.169 294.734 221.778L263.002 189.897C262.613 189.506 262.614 188.873 263.006 188.483L314.407 137.323C314.798 136.933 315.431 136.934 315.821 137.326L347.552 169.206C347.942 169.598 347.94 170.231 347.549 170.62L296.148 221.781Z" fill="#8293E7"/>
<path d="M295.439 222.486L262.297 189.189L295.439 222.486ZM314.407 137.323C315.189 136.543 316.456 136.546 317.235 137.329L347.555 167.792C348.335 168.575 348.332 169.841 347.549 170.62C347.549 170.62 347.233 170.303 346.843 169.912L315.112 138.031C314.722 137.64 314.407 137.323 314.407 137.323ZM348.257 169.915L295.439 222.486L348.257 169.915ZM262.297 189.189L315.115 136.617L262.297 189.189Z" fill="#B53030" mask="url(#path-29-outside-8_209_1147)"/>
<mask id="path-31-outside-9_209_1147" maskUnits="userSpaceOnUse" x="244.33" y="249.174" width="49.78" height="52.89" fill="black">
<rect fill="white" x="244.33" y="249.174" width="49.78" height="52.89"/>
<path d="M244.959 284.928L273.572 249.58L293.115 265.4L264.502 300.748L244.959 284.928Z"/>
</mask>
<path d="M244.959 284.928L273.572 249.58L293.115 265.4L264.502 300.748L244.959 284.928Z" fill="#8293E7"/>
<path d="M265.131 299.97L245.589 284.151L244.33 285.706L263.873 301.525L265.131 299.97Z" fill="#B53030" mask="url(#path-31-outside-9_209_1147)"/>
<mask id="path-33-outside-10_209_1147" maskUnits="userSpaceOnUse" x="87.7425" y="247.013" width="46.5689" height="52.2803" fill="black">
<rect fill="white" x="87.7425" y="247.013" width="46.5689" height="52.2803"/>
<path d="M114.053 298.473L88.0415 261.168L107.297 247.742L133.308 285.046L114.053 298.473Z"/>
</mask>
<path d="M114.053 298.473L88.0415 261.168L107.297 247.742L133.308 285.046L114.053 298.473Z" fill="#8293E7"/>
<path d="M132.736 284.226L113.481 297.652L114.625 299.293L133.88 285.866L132.736 284.226Z" fill="#B53030" mask="url(#path-33-outside-10_209_1147)"/>
<circle cx="93.9849" cy="195.309" r="26.8931" fill="#FFA45C" stroke="black"/>
<circle cx="227.98" cy="242.41" r="26.8931" fill="#FFA45C" stroke="black"/>
<rect x="143.429" y="219.578" width="13.9935" height="45.6652" rx="6.99676" fill="#FFA45C" stroke="black"/>
<rect x="127.353" y="249.619" width="13.9935" height="46.4538" rx="6.99676" transform="rotate(-89.634 127.353 249.619)" fill="#FFA45C" stroke="black"/>
<rect x="262.072" y="202.698" width="13.9935" height="19.5804" rx="6.99676" transform="rotate(-89.634 262.072 202.698)" fill="#FFA45C" stroke="black"/>
<rect x="199.46" y="209.205" width="13.1002" height="17.981" rx="6.55012" transform="rotate(-89.634 199.46 209.205)" fill="#FFA45C" stroke="black"/>
<rect x="164.54" y="209.124" width="13.1002" height="17.981" rx="6.55012" transform="rotate(-89.634 164.54 209.124)" fill="#FFA45C" stroke="black"/>
<rect x="296.099" y="202.708" width="13.9935" height="19.5804" rx="6.99676" transform="rotate(-89.634 296.099 202.708)" fill="#FFA45C" stroke="black"/>
<rect x="281.715" y="202.518" width="13.9935" height="19.5804" rx="6.99676" transform="rotate(0.691147 281.715 202.518)" fill="#FFA45C" stroke="black"/>
<rect x="281.715" y="168.41" width="13.9935" height="19.5804" rx="6.99676" transform="rotate(0.691147 281.715 168.41)" fill="#FFA45C" stroke="black"/>
<circle cx="93.5789" cy="195.715" r="12.6814" fill="#5D5D5A" stroke="black"/>
<circle cx="227.574" cy="242.816" r="12.6814" fill="#5D5D5A" stroke="black"/>
</svg>
