<svg width="400" height="374" viewBox="0 0 400 374" fill="none" xmlns="http://www.w3.org/2000/svg">
<path d="M106.349 161.126C106.349 198.454 82.5492 228.5 53.4247 228.5C24.3001 228.5 0.5 198.454 0.5 161.126C0.5 123.799 24.3001 93.7526 53.4247 93.7526C82.5492 93.7526 106.349 123.799 106.349 161.126Z" fill="#5296FC" stroke="black"/>
<path d="M399.5 161.126C399.5 198.454 375.7 228.5 346.576 228.5C317.451 228.5 293.651 198.454 293.651 161.126C293.651 123.799 317.451 93.7526 346.576 93.7526C375.7 93.7526 399.5 123.799 399.5 161.126Z" fill="#5296FC" stroke="black"/>
<path d="M117.308 82.6289C117.308 94.5929 113.708 105.405 107.911 113.214C102.114 121.023 94.1455 125.804 85.3879 125.804C76.6302 125.804 68.6617 121.023 62.8649 113.214C57.0681 105.405 53.4678 94.5929 53.4678 82.6289C53.4678 70.6648 57.0681 59.853 62.8649 52.0438C68.6617 44.2346 76.6302 39.4536 85.3879 39.4536C94.1455 39.4536 102.114 44.2346 107.911 52.0438C113.708 59.853 117.308 70.6648 117.308 82.6289Z" fill="#5296FC" stroke="black"/>
<path d="M320.961 110.959C320.961 122.923 317.361 133.735 311.564 141.544C305.767 149.353 297.799 154.134 289.041 154.134C280.283 154.134 272.315 149.353 266.518 141.544C260.721 133.735 257.121 122.923 257.121 110.959C257.121 98.9947 260.721 88.1829 266.518 80.3737C272.315 72.5645 280.283 67.7835 289.041 67.7835C297.799 67.7835 305.767 72.5645 311.564 80.3737C317.361 88.1829 320.961 98.9947 320.961 110.959Z" fill="#5296FC" stroke="black"/>
<path d="M264.34 82.6289C264.34 127.985 227.359 164.758 181.735 164.758C136.111 164.758 99.1299 127.985 99.1299 82.6289C99.1299 37.2731 136.111 0.5 181.735 0.5C227.359 0.5 264.34 37.2731 264.34 82.6289Z" fill="#5296FC" stroke="black"/>
<rect x="48.4019" y="103.876" width="287.671" height="125.124" fill="#5296FC"/>
<rect x="115.5" y="149.5" width="159" height="159" fill="#AC4B1C" stroke="#252525"/>
<rect x="130.5" y="164.5" width="129" height="129" fill="#FFEFA0" stroke="#252525"/>
<rect x="145.5" y="179.5" width="99" height="99" fill="#AC4B1C" stroke="#252525"/>
<line x1="150" y1="101" x2="150" y2="149" stroke="#AC4B1C" stroke-width="10"/>
<line x1="180" y1="101" x2="180" y2="149" stroke="#AC4B1C" stroke-width="10"/>
<line x1="209" y1="101" x2="209" y2="149" stroke="#AC4B1C" stroke-width="10"/>
<line x1="240" y1="149" x2="240" y2="101" stroke="#AC4B1C" stroke-width="10"/>
<line x1="150" y1="309" x2="150" y2="357" stroke="#AC4B1C" stroke-width="10"/>
<line x1="180" y1="309" x2="180" y2="357" stroke="#AC4B1C" stroke-width="10"/>
<line x1="209" y1="309" x2="209" y2="357" stroke="#AC4B1C" stroke-width="10"/>
<line x1="240" y1="357" x2="240" y2="309" stroke="#AC4B1C" stroke-width="10"/>
<line y1="-5" x2="47.753" y2="-5" transform="matrix(-0.999997 -0.00264174 0.000853751 -1 322 179.262)" stroke="#AC4B1C" stroke-width="10"/>
<line y1="-5" x2="47.753" y2="-5" transform="matrix(-0.999997 -0.00264174 0.000853751 -1 321.975 209.262)" stroke="#AC4B1C" stroke-width="10"/>
<line y1="-5" x2="47.753" y2="-5" transform="matrix(-0.999997 -0.00264174 0.000853751 -1 321.949 238.262)" stroke="#AC4B1C" stroke-width="10"/>
<line y1="-5" x2="47.753" y2="-5" transform="matrix(0.999996 0.002757 -0.000818059 1 274.162 279.136)" stroke="#AC4B1C" stroke-width="10"/>
<line y1="-5" x2="48.0644" y2="-5" transform="matrix(-1 0.000390331 -0.00201527 -0.999998 115.005 179.056)" stroke="#AC4B1C" stroke-width="10"/>
<line y1="-5" x2="48.0644" y2="-5" transform="matrix(-1 0.000285662 -0.00205096 -0.999998 115.066 209.056)" stroke="#AC4B1C" stroke-width="10"/>
<line y1="-5" x2="48.0644" y2="-5" transform="matrix(-1 0.000285662 -0.00205096 -0.999998 115.126 238.056)" stroke="#AC4B1C" stroke-width="10"/>
<line y1="-5" x2="48.0644" y2="-5" transform="matrix(1 -0.00028566 0.00205096 0.999998 67.1455 279.07)" stroke="#AC4B1C" stroke-width="10"/>
<circle cx="60" cy="184" r="8.5" fill="#AC4B1C" stroke="#252525"/>
<circle cx="60" cy="214" r="8.5" fill="#AC4B1C" stroke="#252525"/>
<circle cx="60" cy="243" r="8.5" fill="#AC4B1C" stroke="#252525"/>
<circle cx="60" cy="274" r="8.5" fill="#AC4B1C" stroke="#252525"/>
<circle cx="150.505" cy="93.5046" r="8.5" transform="rotate(176.69 150.505 93.5046)" fill="#AC4B1C" stroke="#252525"/>
<circle cx="180.504" cy="93.6458" r="8.5" transform="rotate(176.69 180.504 93.6458)" fill="#AC4B1C" stroke="#252525"/>
<circle cx="209.504" cy="93.7822" r="8.5" transform="rotate(176.69 209.504 93.7822)" fill="#AC4B1C" stroke="#252525"/>
<circle cx="240.503" cy="93.9281" r="8.5" transform="rotate(176.69 240.503 93.9281)" fill="#AC4B1C" stroke="#252525"/>
<circle cx="150.505" cy="363.505" r="8.5" transform="rotate(176.69 150.505 363.505)" fill="#AC4B1C" stroke="#252525"/>
<circle cx="180.504" cy="363.646" r="8.5" transform="rotate(176.69 180.504 363.646)" fill="#AC4B1C" stroke="#252525"/>
<circle cx="209.504" cy="363.782" r="8.5" transform="rotate(176.69 209.504 363.782)" fill="#AC4B1C" stroke="#252525"/>
<circle cx="240.503" cy="363.928" r="8.5" transform="rotate(176.69 240.503 363.928)" fill="#AC4B1C" stroke="#252525"/>
<circle cx="328" cy="184" r="8.5" fill="#AC4B1C" stroke="#252525"/>
<circle cx="328" cy="214" r="8.5" fill="#AC4B1C" stroke="#252525"/>
<circle cx="328" cy="243" r="8.5" fill="#AC4B1C" stroke="#252525"/>
<circle cx="328" cy="274" r="8.5" fill="#AC4B1C" stroke="#252525"/>
</svg>
