<svg width="419" height="410" viewBox="0 0 419 410" fill="none" xmlns="http://www.w3.org/2000/svg">
<path d="M299.393 90.9861C299.393 103.485 296.862 112.454 292.339 118.897C287.82 125.335 281.271 129.311 273.119 131.747C264.957 134.186 255.214 135.074 244.348 135.347C237.448 135.52 230.121 135.446 222.474 135.369C218.072 135.325 213.563 135.279 208.968 135.279C204.373 135.279 199.865 135.325 195.462 135.369C187.815 135.446 180.488 135.52 173.589 135.347C162.722 135.074 152.979 134.186 144.817 131.747C136.665 129.311 130.117 125.335 125.598 118.897C121.075 112.454 118.543 103.485 118.543 90.9861C118.543 41.0117 159.028 0.5 208.968 0.5C258.908 0.5 299.393 41.0117 299.393 90.9861Z" fill="#8293E7" stroke="black"/>
<path d="M271.744 85.1635C271.744 93.6059 270.016 99.642 266.947 103.969C263.882 108.291 259.436 110.968 253.88 112.611C248.316 114.256 241.666 114.857 234.235 115.042C229.516 115.159 224.508 115.109 219.278 115.057C216.266 115.027 213.179 114.996 210.032 114.996C206.884 114.996 203.798 115.027 200.785 115.057C195.555 115.109 190.547 115.159 185.829 115.042C178.397 114.857 171.748 114.256 166.183 112.611C160.628 110.968 156.182 108.291 153.117 103.969C150.048 99.642 148.32 93.6059 148.32 85.1635C148.32 51.4165 175.945 24.0509 210.032 24.0509C244.119 24.0509 271.744 51.4165 271.744 85.1635Z" fill="#EEFBF9" stroke="black"/>
<rect x="124.924" y="143.946" width="174.47" height="200.253" rx="10.5" fill="#8293E7" stroke="black"/>
<rect x="-0.183532" y="0.684963" width="38.2169" height="72.9874" rx="10.5" transform="matrix(0.497526 0.867449 -0.86459 0.502478 106.279 146.402)" fill="#8293E7" stroke="black"/>
<rect x="0.681058" y="-0.182486" width="38.2169" height="72.9874" rx="10.5" transform="matrix(0.497526 -0.867449 0.86459 0.502478 300.14 177.615)" fill="#8293E7" stroke="black"/>
<mask id="path-6-inside-1_209_1187" fill="white">
<path d="M54.43 249.593C57.7549 246.456 60.201 242.494 61.5224 238.105C62.8438 233.715 62.994 229.053 61.9577 224.587C60.9214 220.12 58.7353 216.007 55.6192 212.661C52.503 209.315 48.5666 206.853 44.2057 205.524C39.8448 204.195 35.2131 204.045 30.7763 205.089C26.3395 206.133 22.2539 208.335 18.9304 211.472C15.6069 214.61 13.1625 218.573 11.843 222.963C10.5235 227.353 10.3754 232.015 11.4136 236.481L23.5247 233.628C22.9841 231.303 23.0612 228.875 23.7483 226.589C24.4355 224.302 25.7084 222.239 27.4391 220.605C29.1698 218.971 31.2973 217.825 33.6078 217.281C35.9182 216.737 38.3301 216.815 40.601 217.508C42.8719 218.2 44.9218 219.481 46.5446 221.224C48.1673 222.967 49.3057 225.108 49.8453 227.434C50.3849 229.76 50.3068 232.188 49.6187 234.474C48.9305 236.76 47.6567 238.823 45.9253 240.456L54.43 249.593Z"/>
</mask>
<path d="M54.43 249.593C57.7549 246.456 60.201 242.494 61.5224 238.105C62.8438 233.715 62.994 229.053 61.9577 224.587C60.9214 220.12 58.7353 216.007 55.6192 212.661C52.503 209.315 48.5666 206.853 44.2057 205.524C39.8448 204.195 35.2131 204.045 30.7763 205.089C26.3395 206.133 22.2539 208.335 18.9304 211.472C15.6069 214.61 13.1625 218.573 11.843 222.963C10.5235 227.353 10.3754 232.015 11.4136 236.481L23.5247 233.628C22.9841 231.303 23.0612 228.875 23.7483 226.589C24.4355 224.302 25.7084 222.239 27.4391 220.605C29.1698 218.971 31.2973 217.825 33.6078 217.281C35.9182 216.737 38.3301 216.815 40.601 217.508C42.8719 218.2 44.9218 219.481 46.5446 221.224C48.1673 222.967 49.3057 225.108 49.8453 227.434C50.3849 229.76 50.3068 232.188 49.6187 234.474C48.9305 236.76 47.6567 238.823 45.9253 240.456L54.43 249.593Z" fill="#8293E7" stroke="black" stroke-width="2" mask="url(#path-6-inside-1_209_1187)"/>
<mask id="path-7-inside-2_209_1187" fill="white">
<path d="M414.068 232.392C414.933 227.889 414.606 223.235 413.119 218.9C411.632 214.565 409.037 210.7 405.596 207.694C402.154 204.688 397.987 202.647 393.514 201.776C389.04 200.906 384.418 201.236 380.111 202.734C375.805 204.232 371.966 206.845 368.98 210.31C365.995 213.775 363.968 217.97 363.104 222.473C362.24 226.976 362.57 231.629 364.058 235.964C365.547 240.299 368.144 244.163 371.587 247.167L379.734 237.706C377.941 236.142 376.589 234.13 375.814 231.873C375.039 229.615 374.867 227.192 375.317 224.847C375.767 222.502 376.822 220.317 378.377 218.513C379.932 216.709 381.931 215.348 384.173 214.568C386.416 213.788 388.823 213.616 391.153 214.069C393.482 214.523 395.652 215.586 397.444 217.151C399.236 218.716 400.588 220.729 401.362 222.986C402.137 225.244 402.307 227.667 401.856 230.012L414.068 232.392Z"/>
</mask>
<path d="M414.068 232.392C414.933 227.889 414.606 223.235 413.119 218.9C411.632 214.565 409.037 210.7 405.596 207.694C402.154 204.688 397.987 202.647 393.514 201.776C389.04 200.906 384.418 201.236 380.111 202.734C375.805 204.232 371.966 206.845 368.98 210.31C365.995 213.775 363.968 217.97 363.104 222.473C362.24 226.976 362.57 231.629 364.058 235.964C365.547 240.299 368.144 244.163 371.587 247.167L379.734 237.706C377.941 236.142 376.589 234.13 375.814 231.873C375.039 229.615 374.867 227.192 375.317 224.847C375.767 222.502 376.822 220.317 378.377 218.513C379.932 216.709 381.931 215.348 384.173 214.568C386.416 213.788 388.823 213.616 391.153 214.069C393.482 214.523 395.652 215.586 397.444 217.151C399.236 218.716 400.588 220.729 401.362 222.986C402.137 225.244 402.307 227.667 401.856 230.012L414.068 232.392Z" fill="#8293E7" stroke="black" stroke-width="2" mask="url(#path-7-inside-2_209_1187)"/>
<rect x="101.528" y="354.834" width="219.135" height="54.6658" rx="10.5" fill="#8293E7" stroke="black"/>
<rect x="158.954" y="191.048" width="105.345" height="106.05" rx="10.5" fill="#EEFBF9" stroke="black"/>
<path d="M193.42 259.958C192.113 259.692 190.993 259.345 190.06 258.918C189.127 258.518 188.353 258.012 187.74 257.398C187.153 256.785 186.713 256.052 186.42 255.198C186.153 254.345 186.02 253.358 186.02 252.238L186.06 248.438C186.06 246.892 185.713 245.692 185.02 244.838C184.353 243.958 183.393 243.505 182.14 243.478H180.42V240.438H182.22C183.473 240.412 184.42 239.972 185.06 239.118C185.727 238.265 186.06 237.052 186.06 235.478L186.02 231.678C186.02 229.492 186.593 227.798 187.74 226.598C188.887 225.398 190.78 224.518 193.42 223.958L194.14 226.718C192.993 227.092 192.087 227.492 191.42 227.918C190.78 228.345 190.327 228.905 190.06 229.598C189.793 230.265 189.66 231.145 189.66 232.238L189.74 236.038C189.74 237.585 189.38 238.865 188.66 239.878C187.967 240.892 186.953 241.598 185.62 241.998L185.58 241.878C186.94 242.332 187.967 243.065 188.66 244.078C189.38 245.092 189.74 246.358 189.74 247.878L189.66 251.678C189.66 252.772 189.793 253.652 190.06 254.318C190.327 254.985 190.78 255.532 191.42 255.958C192.087 256.385 192.993 256.798 194.14 257.198L193.42 259.958ZM199.665 252.398C198.785 252.398 198.105 252.145 197.625 251.638C197.145 251.105 196.905 250.358 196.905 249.398C196.905 248.518 197.159 247.798 197.665 247.238C198.172 246.678 198.839 246.398 199.665 246.398C200.545 246.398 201.225 246.665 201.705 247.198C202.185 247.705 202.425 248.438 202.425 249.398C202.425 250.278 202.172 250.998 201.665 251.558C201.159 252.118 200.492 252.398 199.665 252.398ZM208.767 252.398C207.887 252.398 207.207 252.145 206.727 251.638C206.247 251.105 206.007 250.358 206.007 249.398C206.007 248.518 206.26 247.798 206.767 247.238C207.274 246.678 207.94 246.398 208.767 246.398C209.647 246.398 210.327 246.665 210.807 247.198C211.287 247.705 211.527 248.438 211.527 249.398C211.527 250.278 211.274 250.998 210.767 251.558C210.26 252.118 209.594 252.398 208.767 252.398ZM217.869 252.398C216.989 252.398 216.309 252.145 215.829 251.638C215.349 251.105 215.109 250.358 215.109 249.398C215.109 248.518 215.362 247.798 215.869 247.238C216.375 246.678 217.042 246.398 217.869 246.398C218.749 246.398 219.429 246.665 219.909 247.198C220.389 247.705 220.629 248.438 220.629 249.398C220.629 250.278 220.375 250.998 219.869 251.558C219.362 252.118 218.695 252.398 217.869 252.398ZM224.09 259.958L223.37 257.198C224.517 256.825 225.41 256.425 226.05 255.998C226.69 255.572 227.143 255.012 227.41 254.318C227.703 253.652 227.85 252.772 227.85 251.678L227.77 247.878C227.77 246.332 228.117 245.052 228.81 244.038C229.53 243.025 230.557 242.318 231.89 241.918L231.93 242.038C230.57 241.585 229.53 240.852 228.81 239.838C228.117 238.825 227.77 237.558 227.77 236.038L227.85 232.238C227.85 231.145 227.717 230.265 227.45 229.598C227.183 228.932 226.73 228.385 226.09 227.958C225.45 227.505 224.543 227.092 223.37 226.718L224.09 223.958C225.397 224.225 226.517 224.572 227.45 224.998C228.383 225.398 229.143 225.905 229.73 226.518C230.343 227.132 230.783 227.865 231.05 228.718C231.343 229.572 231.49 230.558 231.49 231.678L231.45 235.478C231.45 237.025 231.783 238.238 232.45 239.118C233.143 239.972 234.117 240.412 235.37 240.438H237.09V243.478H235.29C234.037 243.505 233.077 243.945 232.41 244.798C231.77 245.652 231.45 246.865 231.45 248.438L231.49 252.238C231.49 254.425 230.917 256.118 229.77 257.318C228.623 258.518 226.73 259.398 224.09 259.958Z" fill="black"/>
</svg>
