<svg width="120" height="28" viewBox="0 0 120 28" fill="none" xmlns="http://www.w3.org/2000/svg">
<path fill-rule="evenodd" clip-rule="evenodd" d="M32.032 0.0399933L25.856 17H19.712L23.168 7.46399L14.464 17H12.256L10.496 7.46399L7.04 17H0.896L7.072 0.0399933H14.816L16.448 8.55199L24.288 0.0399933H32.032ZM47.422 3.27199L49.534 17H43.838L43.166 13.384C43.1233 13.512 42.9633 13.7573 42.686 14.12C42.43 14.4827 42.1313 14.8667 41.79 15.272C41.47 15.6773 41.15 16.0507 40.83 16.392C40.51 16.7333 40.2753 16.936 40.126 17H26.59C26.6327 16.8293 26.654 16.7547 26.654 16.776V16.68L38.174 1.95999C38.238 1.83199 38.366 1.66133 38.558 1.44799C38.75 1.23466 38.9527 1.03199 39.166 0.839994C39.4007 0.62666 39.6247 0.445326 39.838 0.295994C40.0727 0.125327 40.2647 0.0399933 40.414 0.0399933H45.79C46.0033 0.0399933 46.1953 0.157326 46.366 0.391993C46.558 0.62666 46.718 0.91466 46.846 1.25599C46.974 1.59733 47.0807 1.95999 47.166 2.34399C47.2727 2.70666 47.358 3.01599 47.422 3.27199ZM42.046 5.19199L36.67 12.392V12.712H43.166L42.046 5.19199ZM65.4178 17L69.4178 6.43999H61.7378C61.4391 6.67466 61.0978 7.01599 60.7138 7.46399C60.3511 7.89066 59.9991 8.32799 59.6578 8.77599C59.3164 9.20266 59.0178 9.59733 58.7618 9.95999C58.5271 10.3013 58.3991 10.504 58.3778 10.568V10.6H61.9938L61.2578 12.68H59.3698C58.9858 12.68 58.5911 12.552 58.1858 12.296C57.8018 12.04 57.4391 11.72 57.0978 11.336C56.7778 10.952 56.5111 10.536 56.2978 10.088C56.1058 9.61866 56.0098 9.18133 56.0098 8.77599C56.0098 8.45599 56.0951 8.01866 56.2658 7.46399C56.3938 7.10133 56.5644 6.73866 56.7778 6.37599C56.9911 5.99199 57.2258 5.65066 57.4818 5.35199C57.7591 5.05333 58.0578 4.81866 58.3778 4.64799C58.6978 4.45599 59.0284 4.35999 59.3698 4.35999H67.6898C68.4364 3.71999 69.1191 3.04799 69.7378 2.34399C70.3778 1.61866 71.0071 0.85066 71.6258 0.0399933H58.4098C57.2791 0.0399933 56.2124 0.327993 55.2098 0.903994C54.2071 1.45866 53.3218 2.18399 52.5538 3.07999C51.7858 3.97599 51.1778 4.96799 50.7298 6.05599C50.2818 7.14399 50.0578 8.19999 50.0578 9.22399C50.0578 10.76 50.3564 12.0293 50.9538 13.032C51.5724 14.0347 52.3831 14.8347 53.3857 15.432C54.3884 16.008 55.5191 16.4133 56.7778 16.648C58.0364 16.8827 59.3271 17 60.6498 17H65.4178ZM66.5585 17L72.7345 0.0399933H90.9745C90.8252 0.33866 90.5692 0.733327 90.2065 1.22399C89.8652 1.69333 89.4918 2.16266 89.0865 2.63199C88.7025 3.10133 88.3185 3.50666 87.9345 3.84799C87.5718 4.18933 87.3052 4.35999 87.1345 4.35999H77.2785L75.4545 9.38399L78.4945 6.43999H85.8865L81.3105 10.76H74.9425L74.2385 12.68H86.4945C86.4732 12.7227 86.4198 12.8187 86.3345 12.968C86.2492 13.096 86.1638 13.2347 86.0785 13.384C85.9932 13.5333 85.9078 13.672 85.8225 13.8C85.7372 13.928 85.6838 14.0027 85.6625 14.024C85.4705 14.28 85.2038 14.5787 84.8625 14.92C84.5425 15.2613 84.2225 15.592 83.9025 15.912C83.5825 16.2107 83.2945 16.4667 83.0385 16.68C82.8038 16.8933 82.6758 17 82.6545 17H66.5585ZM97.448 7.75199C97.448 7.32533 97.512 6.83466 97.64 6.27999C97.9173 5.53333 98.3013 4.78666 98.792 4.03999C99.2827 3.29333 99.848 2.63199 100.488 2.05599C101.128 1.45866 101.821 0.97866 102.568 0.615993C103.315 0.231993 104.083 0.0399933 104.872 0.0399933H105.128C107.261 0.0399933 109 0.167994 110.344 0.423994C111.688 0.65866 112.733 1.07466 113.48 1.67199C114.227 2.24799 114.739 3.03733 115.016 4.03999C115.293 5.04266 115.432 6.30133 115.432 7.81599V7.91199C115.432 8.93599 115.197 9.99199 114.728 11.08C114.28 12.1467 113.672 13.1173 112.904 13.992C112.136 14.8667 111.251 15.592 110.248 16.168C109.245 16.7227 108.2 17 107.112 17H93.896C94.5147 16.1893 95.1333 15.432 95.752 14.728C96.392 14.0027 97.0853 13.32 97.832 12.68H106.152C106.685 12.68 107.176 12.4773 107.624 12.072C108.072 11.6453 108.456 11.1547 108.776 10.6H100.072C99.112 10.408 98.4293 10.0773 98.024 9.60799C97.64 9.11733 97.448 8.49866 97.448 7.75199ZM104.072 6.18399C104.157 6.35466 104.413 6.47199 104.84 6.53599H108.776L108.616 6.31199C108.317 5.82133 108.008 5.38399 107.688 4.99999C107.368 4.59466 106.973 4.39199 106.504 4.39199H104.648L103.88 5.60799L104.072 6.18399ZM0.664001 21.4V27H1.88V23.7113L3.52 26.408H4.104L5.7528 23.6389L5.76 27H6.976L6.96 21.4H5.896L3.8336 24.8772L1.736 21.4H0.664001ZM9.07263 26.856C9.35529 26.9947 9.67529 27.064 10.0326 27.064C10.3633 27.064 10.6673 26.9893 10.9446 26.84C11.1096 26.7497 11.2509 26.635 11.3686 26.4957V27H12.5526V22.696H11.3046V24.824C11.3046 25.0853 11.262 25.304 11.1766 25.48C11.0913 25.6507 10.974 25.7787 10.8246 25.864C10.6753 25.944 10.5046 25.984 10.3126 25.984C10.0353 25.984 9.81929 25.9013 9.66463 25.736C9.51529 25.5653 9.44063 25.3013 9.44063 24.944V22.696H8.19263V25.128C8.19263 25.5707 8.26996 25.936 8.42462 26.224C8.57929 26.5067 8.79529 26.7173 9.07263 26.856ZM13.7088 21.064V27H14.9568V21.064H13.7088ZM17.0114 26.68C17.294 26.936 17.6887 27.064 18.1954 27.064C18.3874 27.064 18.5714 27.0427 18.7474 27C18.9287 26.952 19.0834 26.8827 19.2114 26.792L18.8754 25.912C18.7367 26.0187 18.5687 26.072 18.3714 26.072C18.206 26.072 18.0754 26.024 17.9794 25.928C17.8834 25.8267 17.8354 25.6853 17.8354 25.504V23.752H18.9074V22.792H17.8354V21.744H16.5874V22.792H15.9234V23.752H16.5874V25.52C16.5874 26.032 16.7287 26.4187 17.0114 26.68ZM19.9119 22.696V27H21.1599V22.696H19.9119ZM19.9759 21.896C20.1199 22.0293 20.3066 22.096 20.5359 22.096C20.7706 22.096 20.9573 22.0293 21.0959 21.896C21.2399 21.7573 21.3119 21.584 21.3119 21.376C21.3119 21.1787 21.2399 21.0187 21.0959 20.896C20.9519 20.768 20.7653 20.704 20.5359 20.704C20.3066 20.704 20.1199 20.7707 19.9759 20.904C19.8319 21.0373 19.7599 21.2027 19.7599 21.4C19.7599 21.5973 19.8319 21.7627 19.9759 21.896ZM28.7342 22.84C28.4729 22.7013 28.1715 22.632 27.8302 22.632C27.4195 22.632 27.0542 22.7307 26.7342 22.928C26.5549 23.0404 26.4033 23.1754 26.2794 23.3328C26.1787 23.1714 26.0503 23.0391 25.8942 22.936C25.6009 22.7333 25.2569 22.632 24.8622 22.632C24.5102 22.632 24.1955 22.7093 23.9182 22.864C23.762 22.9498 23.626 23.0593 23.5102 23.1926V22.696H22.3182V27H23.5662V24.84C23.5662 24.584 23.6062 24.3733 23.6862 24.208C23.7662 24.0427 23.8782 23.92 24.0222 23.84C24.1662 23.7547 24.3289 23.712 24.5102 23.712C24.7715 23.712 24.9715 23.7947 25.1102 23.96C25.2542 24.1253 25.3262 24.3813 25.3262 24.728V27H26.5742V24.84C26.5742 24.584 26.6142 24.3733 26.6942 24.208C26.7742 24.0427 26.8862 23.92 27.0302 23.84C27.1742 23.7547 27.3369 23.712 27.5182 23.712C27.7795 23.712 27.9822 23.7947 28.1262 23.96C28.2702 24.1253 28.3422 24.3813 28.3422 24.728V27H29.5902V24.536C29.5902 24.0987 29.5129 23.7413 29.3582 23.464C29.2089 23.1813 29.0009 22.9733 28.7342 22.84ZM31.5801 26.776C31.9534 26.968 32.3854 27.064 32.8761 27.064C33.2654 27.064 33.6094 27.0053 33.9081 26.888C34.2067 26.7653 34.4547 26.592 34.6521 26.368L33.9881 25.648C33.8441 25.7867 33.6841 25.8907 33.5081 25.96C33.3374 26.0293 33.1374 26.064 32.9081 26.064C32.6521 26.064 32.4281 26.0187 32.2361 25.928C32.0494 25.832 31.9027 25.696 31.7961 25.52C31.7409 25.4212 31.7007 25.3146 31.6756 25.2H34.9321C34.9374 25.1467 34.9427 25.0907 34.9481 25.032C34.9534 24.968 34.9561 24.912 34.9561 24.864C34.9561 24.4 34.8574 24.0027 34.6601 23.672C34.4627 23.336 34.1934 23.08 33.8521 22.904C33.5161 22.7227 33.1374 22.632 32.7161 22.632C32.2787 22.632 31.8867 22.728 31.5401 22.92C31.1934 23.1067 30.9187 23.368 30.7161 23.704C30.5187 24.0347 30.4201 24.416 30.4201 24.848C30.4201 25.2747 30.5214 25.656 30.7241 25.992C30.9267 26.3227 31.2121 26.584 31.5801 26.776ZM31.6612 24.472C31.6819 24.3387 31.7216 24.2187 31.7801 24.112C31.8707 23.9413 31.9961 23.8107 32.1561 23.72C32.3214 23.624 32.5107 23.576 32.7241 23.576C32.9374 23.576 33.1241 23.624 33.2841 23.72C33.4441 23.8107 33.5694 23.9387 33.6601 24.104C33.7202 24.2137 33.7604 24.3364 33.7807 24.472H31.6612ZM36.5389 26.792C36.8643 26.9733 37.2296 27.064 37.6349 27.064C38.0136 27.064 38.3363 26.984 38.6029 26.824C38.746 26.7399 38.8713 26.6329 38.9789 26.503V27H40.1709V21.064H38.9229V23.1448C38.8239 23.0364 38.7119 22.9455 38.5869 22.872C38.3149 22.712 37.9976 22.632 37.6349 22.632C37.2296 22.632 36.8643 22.7227 36.5389 22.904C36.2136 23.0853 35.9549 23.3413 35.7629 23.672C35.5763 24.0027 35.4829 24.3947 35.4829 24.848C35.4829 25.296 35.5763 25.6853 35.7629 26.016C35.9549 26.3467 36.2136 26.6053 36.5389 26.792ZM38.4029 25.896C38.2376 25.992 38.0536 26.04 37.8509 26.04C37.6429 26.04 37.4563 25.992 37.2909 25.896C37.1256 25.8 36.9923 25.664 36.8909 25.488C36.7949 25.3067 36.7469 25.0933 36.7469 24.848C36.7469 24.5973 36.7949 24.384 36.8909 24.208C36.9923 24.032 37.1256 23.896 37.2909 23.8C37.4563 23.704 37.6429 23.656 37.8509 23.656C38.0536 23.656 38.2376 23.704 38.4029 23.8C38.5683 23.896 38.6989 24.032 38.7949 24.208C38.8963 24.384 38.9469 24.5973 38.9469 24.848C38.9469 25.0933 38.8963 25.3067 38.7949 25.488C38.6989 25.664 38.5683 25.8 38.4029 25.896ZM41.39 21.896C41.534 22.0293 41.7207 22.096 41.95 22.096C42.1847 22.096 42.3713 22.0293 42.51 21.896C42.654 21.7573 42.726 21.584 42.726 21.376C42.726 21.1787 42.654 21.0187 42.51 20.896C42.366 20.768 42.1793 20.704 41.95 20.704C41.7207 20.704 41.534 20.7707 41.39 20.904C41.246 21.0373 41.174 21.2027 41.174 21.4C41.174 21.5973 41.246 21.7627 41.39 21.896ZM46.3722 26.4652V27H47.5402V24.544C47.5402 23.888 47.3589 23.4053 46.9963 23.096C46.6336 22.7867 46.1242 22.632 45.4683 22.632C45.1269 22.632 44.7909 22.6773 44.4603 22.768C44.1296 22.8587 43.8469 22.9867 43.6123 23.152L44.0602 24.024C44.2149 23.9013 44.4016 23.8053 44.6203 23.736C44.8442 23.6613 45.0709 23.624 45.3003 23.624C45.6362 23.624 45.8843 23.6987 46.0443 23.848C46.2096 23.9973 46.2923 24.2053 46.2923 24.472H45.3003C44.8629 24.472 44.5083 24.528 44.2363 24.64C43.9642 24.7467 43.7643 24.896 43.6362 25.088C43.5136 25.28 43.4523 25.504 43.4523 25.76C43.4523 26.0053 43.5163 26.2267 43.6442 26.424C43.7723 26.6213 43.9562 26.7787 44.1963 26.896C44.4362 27.008 44.7243 27.064 45.0602 27.064C45.4389 27.064 45.7482 26.992 45.9883 26.848C46.1503 26.7508 46.2783 26.6232 46.3722 26.4652ZM46.2923 25.64V25.2H45.4362C45.1429 25.2 44.9403 25.248 44.8283 25.344C44.7216 25.44 44.6683 25.56 44.6683 25.704C44.6683 25.864 44.7296 25.992 44.8522 26.088C44.9803 26.1787 45.1536 26.224 45.3722 26.224C45.5802 26.224 45.7669 26.176 45.9323 26.08C46.0976 25.9787 46.2176 25.832 46.2923 25.64ZM41.326 22.696V27H42.574V22.696H41.326ZM53.5754 26.4652V27H54.7434V24.544C54.7434 23.888 54.562 23.4053 54.1994 23.096C53.8367 22.7867 53.3274 22.632 52.6714 22.632C52.33 22.632 51.994 22.6773 51.6634 22.768C51.3327 22.8587 51.05 22.9867 50.8154 23.152L51.2634 24.024C51.418 23.9013 51.6047 23.8053 51.8234 23.736C52.0474 23.6613 52.274 23.624 52.5034 23.624C52.8394 23.624 53.0874 23.6987 53.2474 23.848C53.4127 23.9973 53.4954 24.2053 53.4954 24.472H52.5034C52.066 24.472 51.7114 24.528 51.4394 24.64C51.1674 24.7467 50.9674 24.896 50.8394 25.088C50.7167 25.28 50.6554 25.504 50.6554 25.76C50.6554 26.0053 50.7194 26.2267 50.8474 26.424C50.9754 26.6213 51.1594 26.7787 51.3994 26.896C51.6394 27.008 51.9274 27.064 52.2634 27.064C52.642 27.064 52.9514 26.992 53.1914 26.848C53.3534 26.7508 53.4814 26.6232 53.5754 26.4652ZM53.4954 25.64V25.2H52.6394C52.346 25.2 52.1434 25.248 52.0314 25.344C51.9247 25.44 51.8714 25.56 51.8714 25.704C51.8714 25.864 51.9327 25.992 52.0554 26.088C52.1834 26.1787 52.3567 26.224 52.5754 26.224C52.7834 26.224 52.97 26.176 53.1354 26.08C53.3007 25.9787 53.4207 25.832 53.4954 25.64ZM59.4009 22.84C59.1342 22.7013 58.8302 22.632 58.4889 22.632C58.1209 22.632 57.7929 22.7093 57.5049 22.864C57.335 22.9552 57.1884 23.0696 57.0649 23.2072V22.696H55.8729V27H57.1209V24.872C57.1209 24.6053 57.1635 24.3867 57.2489 24.216C57.3395 24.0453 57.4622 23.92 57.6169 23.84C57.7769 23.7547 57.9555 23.712 58.1529 23.712C58.4302 23.712 58.6435 23.7947 58.7929 23.96C58.9475 24.1253 59.0249 24.3813 59.0249 24.728V27H60.2729V24.536C60.2729 24.0987 60.1955 23.7413 60.0409 23.464C59.8862 23.1813 59.6729 22.9733 59.4009 22.84ZM62.1874 26.792C62.5127 26.9733 62.878 27.064 63.2834 27.064C63.662 27.064 63.9847 26.984 64.2514 26.824C64.3944 26.7399 64.5197 26.6329 64.6274 26.503V27H65.8194V21.064H64.5714V23.1448C64.4723 23.0364 64.3603 22.9455 64.2354 22.872C63.9634 22.712 63.646 22.632 63.2834 22.632C62.878 22.632 62.5127 22.7227 62.1874 22.904C61.862 23.0853 61.6034 23.3413 61.4114 23.672C61.2247 24.0027 61.1314 24.3947 61.1314 24.848C61.1314 25.296 61.2247 25.6853 61.4114 26.016C61.6034 26.3467 61.862 26.6053 62.1874 26.792ZM64.0514 25.896C63.886 25.992 63.702 26.04 63.4994 26.04C63.2914 26.04 63.1047 25.992 62.9394 25.896C62.774 25.8 62.6407 25.664 62.5394 25.488C62.4434 25.3067 62.3954 25.0933 62.3954 24.848C62.3954 24.5973 62.4434 24.384 62.5394 24.208C62.6407 24.032 62.774 23.896 62.9394 23.8C63.1047 23.704 63.2914 23.656 63.4994 23.656C63.702 23.656 63.886 23.704 64.0514 23.8C64.2167 23.896 64.3474 24.032 64.4434 24.208C64.5447 24.384 64.5954 24.5973 64.5954 24.848C64.5954 25.0933 64.5447 25.3067 64.4434 25.488C64.3474 25.664 64.2167 25.8 64.0514 25.896ZM70.8081 26.888C71.1814 27.0267 71.5894 27.096 72.0321 27.096C72.4321 27.096 72.8321 27.0347 73.2321 26.912C73.6374 26.7893 73.9921 26.6133 74.2961 26.384V24.112H73.1121V25.7569C73.0251 25.8027 72.9371 25.841 72.8481 25.872C72.6081 25.952 72.3601 25.992 72.1041 25.992C71.8374 25.992 71.5921 25.9493 71.3681 25.864C71.1494 25.7787 70.9574 25.656 70.7921 25.496C70.6321 25.3307 70.5067 25.1387 70.4161 24.92C70.3307 24.7013 70.2881 24.4613 70.2881 24.2C70.2881 23.9333 70.3307 23.6907 70.4161 23.472C70.5067 23.2533 70.6321 23.064 70.7921 22.904C70.9574 22.744 71.1521 22.6213 71.3761 22.536C71.6001 22.4507 71.8481 22.408 72.1201 22.408C72.4027 22.408 72.6641 22.4613 72.9041 22.568C73.1441 22.6693 73.3654 22.8267 73.5681 23.04L74.4001 22.272C74.1281 21.9573 73.7921 21.7173 73.3921 21.552C72.9974 21.3867 72.5521 21.304 72.0561 21.304C71.6081 21.304 71.1974 21.376 70.8241 21.52C70.4507 21.6587 70.1254 21.8587 69.8481 22.12C69.5707 22.3813 69.3547 22.688 69.2001 23.04C69.0507 23.392 68.9761 23.7787 68.9761 24.2C68.9761 24.6213 69.0507 25.008 69.2001 25.36C69.3547 25.712 69.5681 26.0187 69.8401 26.28C70.1174 26.5413 70.4401 26.744 70.8081 26.888ZM78.0519 26.4652V27H79.2199V24.544C79.2199 23.888 79.0386 23.4053 78.6759 23.096C78.3133 22.7867 77.8039 22.632 77.1479 22.632C76.8066 22.632 76.4706 22.6773 76.1399 22.768C75.8093 22.8587 75.5266 22.9867 75.2919 23.152L75.7399 24.024C75.8946 23.9013 76.0813 23.8053 76.2999 23.736C76.5239 23.6613 76.7506 23.624 76.9799 23.624C77.3159 23.624 77.5639 23.6987 77.7239 23.848C77.8893 23.9973 77.9719 24.2053 77.9719 24.472H76.9799C76.5426 24.472 76.1879 24.528 75.9159 24.64C75.6439 24.7467 75.4439 24.896 75.3159 25.088C75.1933 25.28 75.1319 25.504 75.1319 25.76C75.1319 26.0053 75.1959 26.2267 75.3239 26.424C75.4519 26.6213 75.6359 26.7787 75.8759 26.896C76.1159 27.008 76.4039 27.064 76.7399 27.064C77.1186 27.064 77.4279 26.992 77.6679 26.848C77.83 26.7508 77.958 26.6232 78.0519 26.4652ZM77.9719 25.64V25.2H77.1159C76.8226 25.2 76.6199 25.248 76.5079 25.344C76.4013 25.44 76.3479 25.56 76.3479 25.704C76.3479 25.864 76.4093 25.992 76.5319 26.088C76.6599 26.1787 76.8333 26.224 77.0519 26.224C77.2599 26.224 77.4466 26.176 77.6119 26.08C77.7773 25.9787 77.8973 25.832 77.9719 25.64ZM86.7654 22.84C86.5041 22.7013 86.2028 22.632 85.8614 22.632C85.4508 22.632 85.0854 22.7307 84.7654 22.928C84.5862 23.0404 84.4346 23.1754 84.3107 23.3328C84.21 23.1714 84.0815 23.0391 83.9254 22.936C83.6321 22.7333 83.2881 22.632 82.8934 22.632C82.5414 22.632 82.2268 22.7093 81.9494 22.864C81.7932 22.9498 81.6572 23.0593 81.5414 23.1926V22.696H80.3494V27H81.5974V24.84C81.5974 24.584 81.6374 24.3733 81.7174 24.208C81.7974 24.0427 81.9094 23.92 82.0534 23.84C82.1974 23.7547 82.3601 23.712 82.5414 23.712C82.8028 23.712 83.0028 23.7947 83.1414 23.96C83.2854 24.1253 83.3574 24.3813 83.3574 24.728V27H84.6054V24.84C84.6054 24.584 84.6454 24.3733 84.7254 24.208C84.8054 24.0427 84.9174 23.92 85.0614 23.84C85.2054 23.7547 85.3681 23.712 85.5494 23.712C85.8108 23.712 86.0134 23.7947 86.1574 23.96C86.3014 24.1253 86.3734 24.3813 86.3734 24.728V27H87.6214V24.536C87.6214 24.0987 87.5441 23.7413 87.3894 23.464C87.2401 23.1813 87.0321 22.9733 86.7654 22.84ZM89.6113 26.776C89.9846 26.968 90.4166 27.064 90.9073 27.064C91.2966 27.064 91.6406 27.0053 91.9393 26.888C92.238 26.7653 92.486 26.592 92.6833 26.368L92.0193 25.648C91.8753 25.7867 91.7153 25.8907 91.5393 25.96C91.3686 26.0293 91.1686 26.064 90.9393 26.064C90.6833 26.064 90.4593 26.0187 90.2673 25.928C90.0806 25.832 89.934 25.696 89.8273 25.52C89.7721 25.4212 89.732 25.3146 89.7068 25.2H92.9633C92.9686 25.1467 92.974 25.0907 92.9793 25.032C92.9846 24.968 92.9873 24.912 92.9873 24.864C92.9873 24.4 92.8886 24.0027 92.6913 23.672C92.494 23.336 92.2246 23.08 91.8833 22.904C91.5473 22.7227 91.1686 22.632 90.7473 22.632C90.31 22.632 89.918 22.728 89.5713 22.92C89.2246 23.1067 88.95 23.368 88.7473 23.704C88.55 24.0347 88.4513 24.416 88.4513 24.848C88.4513 25.2747 88.5526 25.656 88.7553 25.992C88.958 26.3227 89.2433 26.584 89.6113 26.776ZM89.6924 24.472C89.7132 24.3387 89.7528 24.2187 89.8113 24.112C89.902 23.9413 90.0273 23.8107 90.1873 23.72C90.3526 23.624 90.542 23.576 90.7553 23.576C90.9686 23.576 91.1553 23.624 91.3153 23.72C91.4753 23.8107 91.6006 23.9387 91.6913 24.104C91.7515 24.2137 91.7917 24.3364 91.8119 24.472H89.6924ZM97.4598 24.664V25.96H100.508V27H96.1718V21.4H100.404V22.44H97.4598V23.656H100.06V24.664H97.4598ZM102.06 22.696H100.772L102.58 27H103.868L105.684 22.696H104.484L103.25 25.6263L102.06 22.696ZM106.916 26.776C107.289 26.968 107.721 27.064 108.212 27.064C108.601 27.064 108.945 27.0053 109.244 26.888C109.543 26.7653 109.791 26.592 109.988 26.368L109.324 25.648C109.18 25.7867 109.02 25.8907 108.844 25.96C108.673 26.0293 108.473 26.064 108.244 26.064C107.988 26.064 107.764 26.0187 107.572 25.928C107.385 25.832 107.239 25.696 107.132 25.52C107.077 25.4212 107.037 25.3146 107.012 25.2H110.268C110.273 25.1467 110.279 25.0907 110.284 25.032C110.289 24.968 110.292 24.912 110.292 24.864C110.292 24.4 110.193 24.0027 109.996 23.672C109.799 23.336 109.529 23.08 109.188 22.904C108.852 22.7227 108.473 22.632 108.052 22.632C107.615 22.632 107.223 22.728 106.876 22.92C106.529 23.1067 106.255 23.368 106.052 23.704C105.855 24.0347 105.756 24.416 105.756 24.848C105.756 25.2747 105.857 25.656 106.06 25.992C106.263 26.3227 106.548 26.584 106.916 26.776ZM106.997 24.472C107.018 24.3387 107.057 24.2187 107.116 24.112C107.207 23.9413 107.332 23.8107 107.492 23.72C107.657 23.624 107.847 23.576 108.06 23.576C108.273 23.576 108.46 23.624 108.62 23.72C108.78 23.8107 108.905 23.9387 108.996 24.104C109.056 24.2137 109.096 24.3364 109.117 24.472H106.997ZM114.651 22.84C114.384 22.7013 114.08 22.632 113.739 22.632C113.371 22.632 113.043 22.7093 112.755 22.864C112.585 22.9552 112.438 23.0696 112.315 23.2072V22.696H111.123V27H112.371V24.872C112.371 24.6053 112.414 24.3867 112.499 24.216C112.59 24.0453 112.712 23.92 112.867 23.84C113.027 23.7547 113.206 23.712 113.403 23.712C113.68 23.712 113.894 23.7947 114.043 23.96C114.198 24.1253 114.275 24.3813 114.275 24.728V27H115.523V24.536C115.523 24.0987 115.446 23.7413 115.291 23.464C115.136 23.1813 114.923 22.9733 114.651 22.84ZM117.23 26.68C117.513 26.936 117.907 27.064 118.414 27.064C118.606 27.064 118.79 27.0427 118.966 27C119.147 26.952 119.302 26.8827 119.43 26.792L119.094 25.912C118.955 26.0187 118.787 26.072 118.59 26.072C118.425 26.072 118.294 26.024 118.198 25.928C118.102 25.8267 118.054 25.6853 118.054 25.504V23.752H119.126V22.792H118.054V21.744H116.806V22.792H116.142V23.752H116.806V25.52C116.806 26.032 116.947 26.4187 117.23 26.68Z" fill="#0B5EBF"/>
</svg>
