<svg width="1928" height="1088" viewBox="0 0 1928 1088" fill="none" xmlns="http://www.w3.org/2000/svg">
<g clip-path="url(#clip0_178_1880)" filter="url(#filter0_d_178_1880)">
<rect width="1920" height="1080" transform="translate(4)" fill="#EDF7FC"/>
<path d="M7.51828 1009.21C10.8548 1157.12 -20.334 1223.86 -139.296 1312.02L-210 1344H245C208.084 1243.86 186.087 1187.74 183.446 1086.88V739.625C195.37 647.344 203.023 595.225 190.932 512.413C143.549 416.197 100.546 377.337 7.51828 323V1009.21Z" fill="#BCEAE4"/>
<path fill-rule="evenodd" clip-rule="evenodd" d="M246.819 396.614C246.813 426.102 246.453 525.793 246.021 618.15C245.589 710.507 245.049 849.94 244.821 928C244.566 1015.24 244.084 1073.55 243.571 1079.33C238.407 1137.51 220.814 1188.67 192.223 1228.65C182.216 1242.64 176.52 1249.31 163.069 1262.81C127.33 1298.66 87.0651 1322.51 28.244 1342.68C24.9458 1343.81 51.8207 1343.94 311.8 1344C469.761 1344.03 599 1343.79 599 1343.45C599 1343.12 595.266 1341.42 590.702 1339.67C541.445 1320.84 500.982 1288.97 473.005 1246.95C450.683 1213.43 435.171 1174.08 424.358 1123.57L422.273 1113.82L421.994 1016.31C421.324 782.004 421.399 726.37 422.399 716.071C424.092 698.635 426.569 679.108 429.481 660.232C434.158 629.927 434.732 623.762 435.212 598.728C435.691 573.786 435.317 568.071 432.138 551.79C418.849 483.737 370.524 422.151 287.23 367.119C272.396 357.318 248.861 343 247.583 343C247.128 343 246.827 364.132 246.819 396.614ZM351.672 441.847C402.857 494.667 423.951 558.538 417.249 640.405C416.156 653.742 413.74 674.908 413.252 675.414C413.14 675.53 412.808 670.432 412.514 664.085C410.748 625.947 402.012 588.824 388.08 560.262C375.612 534.699 356.918 512.651 335.827 498.632L330.218 494.905V458.116V421.327L336.493 426.992C339.943 430.108 346.774 436.793 351.672 441.847ZM283.165 516.565C307.257 530.86 327.896 550.549 342.147 572.831C353.828 591.096 363.118 617.576 366.989 643.642C371.391 673.286 370.437 717.525 364.617 753.702C354.994 813.507 333.956 868.402 298.401 926.48C292.237 936.548 273.433 964.679 273.102 964.327C272.793 963.997 273.756 511.327 274.066 511.327C274.215 511.327 278.31 513.684 283.165 516.565ZM405.51 886.062V908.766L396.182 902.45C389.257 897.76 386.942 895.771 387.197 894.73C387.535 893.348 404.816 863.357 405.274 863.357C405.404 863.357 405.51 873.574 405.51 886.062ZM405.51 935.214V954.963L403.236 953.467C393.835 947.285 368.269 929.55 368.269 929.21C368.269 928.705 379.91 906.957 382.182 903.218L383.777 900.593L394.643 908.029L405.51 915.464V935.214ZM385.949 948.33L405.509 961.683L405.51 984.188C405.51 1001.96 405.297 1006.57 404.498 1006.11C400.013 1003.51 348.938 968.221 349.118 967.84C355.694 953.938 365.486 934.601 365.87 934.761C366.155 934.88 375.191 940.986 385.949 948.33ZM390.303 1003.22L405.456 1013.48L405.483 1035.88L405.51 1058.28L369.281 1033.57C349.355 1019.98 332.722 1008.55 332.319 1008.17C331.694 1007.58 335.969 996.969 344.773 977.253L346.493 973.4L360.822 983.186C368.703 988.568 381.969 997.584 390.303 1003.22ZM367.459 1038.95C387.274 1052.42 404.124 1064.16 404.902 1065.05C406.13 1066.45 406.319 1068.46 406.319 1080.08V1093.51L403.688 1091.06C392.377 1080.55 378.502 1074.59 361.792 1073.08L354.101 1072.38L335.481 1059.66C322.013 1050.45 316.937 1046.55 317.138 1045.58C317.426 1044.17 325.936 1021.43 328.195 1016.03C329.115 1013.83 329.767 1013.16 330.46 1013.7C330.995 1014.12 347.645 1025.48 367.459 1038.95ZM330.444 1062.84L344.621 1072.55L339.646 1073.15C331.183 1074.17 318.773 1076.27 312.205 1077.78C308.755 1078.57 305.931 1079.01 305.931 1078.75C305.931 1076.56 314.606 1052.73 315.337 1052.9C315.848 1053.03 322.646 1057.5 330.444 1062.84ZM236.307 1267.99V1303.6H227.401H218.496L218.491 1272.64C218.486 1242.29 218.522 1241.61 220.313 1237.48L222.139 1233.28L226.592 1232.98C229.041 1232.82 232.229 1232.62 233.676 1232.54L236.307 1232.38V1267.99ZM263.833 1267.99V1303.6H253.713H243.593V1267.99V1232.38H253.713H263.833V1267.99ZM285.489 1232.91L289.739 1233.42V1268.51V1303.6H280.429H271.119V1267.99V1232.38L276.179 1232.39C278.962 1232.39 283.152 1232.63 285.489 1232.91ZM307.192 1234.94L314.836 1235.88V1269.74V1303.6H305.931H297.026V1268.8C297.026 1237.83 297.164 1234 298.287 1234C298.982 1234 302.989 1234.42 307.192 1234.94ZM330.839 1238.91C335.173 1239.82 339.357 1240.76 340.136 1240.98C341.454 1241.36 341.553 1243.57 341.553 1272.49V1303.6H331.838H322.123V1270.42C322.123 1252.17 322.311 1237.24 322.541 1237.24C322.772 1237.24 326.507 1237.99 330.839 1238.91ZM358.715 1246.31L366.65 1248.91V1276.25V1303.6H357.744H348.839V1273.65C348.839 1250.92 349.073 1243.71 349.81 1243.71C350.343 1243.71 354.35 1244.88 358.715 1246.31ZM385.068 1256.73L393.366 1260.59V1282.1V1303.6H383.651H373.936V1277.73C373.936 1253.44 374.023 1251.89 375.353 1252.36C376.132 1252.63 380.504 1254.6 385.068 1256.73ZM211.21 1278.91V1303.6H201.495H191.78V1290.58V1277.56L197.032 1271.8C199.921 1268.64 204.201 1263.42 206.545 1260.19C208.888 1256.97 210.896 1254.31 211.007 1254.28C211.118 1254.25 211.21 1265.34 211.21 1278.91ZM413.403 1272.62L420.082 1276.99V1290.3V1303.6H410.367H400.652V1284.11V1264.62L403.688 1266.43C405.358 1267.43 409.729 1270.21 413.403 1272.62ZM434.403 1288.83C437.705 1291.83 442.664 1296.37 445.424 1298.92L450.442 1303.54L438.905 1303.57L427.368 1303.6V1293.48C427.368 1287.92 427.601 1283.37 427.884 1283.37C428.167 1283.37 431.101 1285.82 434.403 1288.83ZM184.494 1294.29V1303.6L172.957 1303.57L161.42 1303.55L163.849 1301.75C165.185 1300.77 170.285 1296.6 175.183 1292.49C180.081 1288.39 184.18 1285.02 184.291 1285.01C184.402 1284.99 184.494 1289.17 184.494 1294.29Z" fill="#BCEAE4"/>
<path fill-rule="evenodd" clip-rule="evenodd" d="M472.714 343V437.871H479.729V452.064H506.033V461.028L521.815 461.775V467.752L509.54 475.969L586.698 507.343C600.173 512.137 603.127 515.407 605.987 521.537V529.007L624.4 533.489C629.648 535.363 628.73 536.108 624.4 537.224L601.603 543.2C603.061 549.111 597.693 552.553 590.369 557.251L590.367 557.252L590.366 557.253C589.187 558.009 587.957 558.798 586.698 559.634C598.968 559.604 601.902 561.202 601.603 566.357C602.285 572.9 598.908 574.623 586.698 574.575H539.351C514.26 679.542 501.861 738.957 499.895 851.717C502.678 1046.46 518.507 1153.75 555.133 1344H514.661H495.949V1309.68H452.823V1344H437.319H392.926C428.67 1159 435.997 1049.72 442.027 851.717C437.406 742.761 424.69 682.296 399.941 574.575H355.224C343.47 574.379 340.225 573.775 340.319 567.104C340.487 562.125 341.171 560.4 350.84 559.634C343.085 554.392 340.053 550.931 338.565 543.2L316.645 537.224C313.512 535.864 312.745 535.062 316.645 533.489L333.304 527.513V521.537C337.459 514.878 341.198 511.729 350.84 507.343L431.505 475.969L420.107 467.752V461.775H431.505V452.064H457.809V437.871H464.823V343H472.714ZM378.898 507.343C362.129 512.91 357.128 516.017 355.224 521.537H586.698C583.353 515.884 575.945 512.791 557.764 507.343H378.898ZM355.224 543.2C354.23 549.607 359.047 553.207 371.007 559.634H569.162C582.251 553.104 586.282 549.496 586.698 543.2H355.224ZM459.016 728.46L457.809 574.575H481.483L481.479 728.46C473.606 767.554 468.045 770.098 459.016 728.46ZM492.283 642.276C495.38 621.083 499.43 600.824 505.156 574.575H493.32L492.283 642.276ZM435.013 574.575H447.288V642.276C444.534 622.348 440.925 601.736 435.013 574.575ZM472.247 1055.79C470.058 1060.96 468.311 1065.15 466.901 1069.8V1191.24H481.425L478.111 1069.8C476.494 1065.16 474.565 1060.59 472.247 1055.79ZM452.823 1191.24L461.199 1127.61V1191.24H452.823ZM495.949 1191.24L486.682 1127.61L488.687 1191.24H495.949ZM495.949 1216.9H452.823V1203.54H495.949V1216.9ZM452.823 1244.23H495.949V1231.33H452.823V1244.23ZM495.949 1296.32H452.823V1284.93H495.949V1296.32ZM495.949 1270.2V1257.6H452.823V1270.2H472.604H495.949Z" fill="#8293E7"/>
<path fill-rule="evenodd" clip-rule="evenodd" d="M675.218 730.302L635 687.876V1344H1004C904.473 1240.3 859.016 1180.39 811.959 1067.74L806.932 602.037L725.49 681.346V551.718H768.725V531.985H725.49V513.238H768.725V493.505H725.49V383H714.431V493.505H665.164V513.238H714.431V531.985H665.164V551.718H714.431V692.116L675.218 730.302ZM768.725 1137.79C795.036 1198.23 818.832 1232.58 877.313 1294.67H692.311C694.753 1199.93 713.813 1165 768.725 1137.79Z" fill="#BCEAE4"/>
<path fill-rule="evenodd" clip-rule="evenodd" d="M1920.48 348.064C1919.15 371.897 1918.85 373.574 1915.69 375.217C1912.45 376.895 1910.2 381.513 1910.9 385.045C1911.17 386.432 1912.84 388.745 1914.6 390.186L1917.81 392.807L1915.98 425.19L1914.14 457.573L1908.04 463.336C1894.56 476.061 1885.52 500.86 1880.18 539.745C1876.51 566.432 1875.58 583.721 1874.82 638.962L1874.08 692.467L1870.58 702.336C1865.07 717.899 1859.65 726.047 1841.12 746.642C1830.55 758.399 1819.11 775.557 1811.1 791.683C1791.65 830.846 1782.17 874.77 1778.35 943.5L1777.34 961.815L1638.75 1146.61C1562.52 1248.25 1499.8 1331.99 1499.36 1332.7C1498.72 1333.74 1541.4 1334 1711.37 1334H1924.18L1923.55 924.406C1923.2 699.129 1922.64 487.111 1922.29 453.255C1921.76 400.685 1921.89 391.699 1923.18 391.699C1925.8 391.699 1929.35 387.077 1929.35 383.665C1929.35 379.01 1928.41 377.274 1924.96 375.542L1921.9 374.006L1921.61 353.503L1921.32 333L1920.48 348.064ZM1852.25 768.047C1846.88 788.463 1842.28 812.266 1839.46 834.279C1837.39 850.483 1835.09 876.485 1835.08 883.888L1835.08 887.264H1820.01H1804.95L1805.53 882.849C1811.37 838.377 1818.57 812.127 1832.04 786.136C1838.79 773.121 1854.75 750.159 1856.12 751.489C1856.33 751.695 1854.59 759.147 1852.25 768.047ZM1807.37 1053C1817.76 1072.13 1826.12 1087.78 1825.96 1087.78C1825.23 1087.78 1774.51 1049.02 1774.2 1048.23C1773.82 1047.23 1787.11 1018.17 1787.94 1018.2C1788.23 1018.21 1796.97 1033.87 1807.37 1053ZM1803.4 1078.53L1833.79 1101.54L1839.39 1111.93L1845 1122.31L1843.3 1128.21C1842.38 1131.46 1841.12 1135.37 1840.51 1136.91L1839.41 1139.72L1799.48 1109.51C1777.52 1092.89 1759.55 1078.97 1759.55 1078.58C1759.55 1078.18 1761.96 1072.6 1764.9 1066.18C1768.44 1058.44 1770.71 1054.68 1771.63 1055.02C1772.38 1055.3 1786.68 1065.88 1803.4 1078.53ZM1797.58 1115.66C1819.09 1131.91 1836.88 1145.37 1837.12 1145.57C1837.36 1145.77 1835.67 1152.02 1833.37 1159.46C1830.49 1168.75 1828.76 1172.82 1827.83 1172.48C1825.43 1171.6 1745.08 1110.45 1745.08 1109.5C1745.08 1109 1747.57 1103.22 1750.6 1096.66C1754.06 1089.18 1756.56 1084.99 1757.3 1085.42C1757.95 1085.81 1776.07 1099.41 1797.58 1115.66ZM1784.72 1148.02C1806.23 1164.2 1824.47 1178.02 1825.26 1178.71C1826.46 1179.77 1826.02 1182.17 1822.72 1192.84C1820.52 1199.91 1818.35 1206.1 1817.88 1206.6C1817.42 1207.09 1797.45 1192.68 1773.52 1174.56C1736.13 1146.27 1730.09 1141.33 1730.69 1139.51C1731.07 1138.34 1733.75 1132.47 1736.65 1126.46C1741.5 1116.38 1742.05 1115.65 1743.76 1117.07C1744.78 1117.91 1763.22 1131.84 1784.72 1148.02ZM1777.76 1185.45C1807.14 1207.68 1815.19 1214.26 1814.97 1215.9C1814.81 1217.05 1812.97 1223.32 1810.87 1229.83L1807.06 1241.66L1803.12 1238.78C1800.96 1237.19 1780.38 1221.66 1757.4 1204.26C1734.42 1186.86 1715.5 1172.54 1715.34 1172.44C1715.19 1172.33 1717.28 1167.62 1720 1161.96C1722.72 1156.3 1725.38 1150.58 1725.92 1149.25C1726.88 1146.85 1726.94 1146.87 1733.57 1151.95C1737.25 1154.77 1757.14 1169.85 1777.76 1185.45ZM1757.72 1212.04C1782.29 1230.67 1802.99 1246.45 1803.7 1247.11C1804.72 1248.04 1804.07 1251.2 1800.71 1261.54C1798.35 1268.82 1796.17 1274.78 1795.87 1274.78C1795.5 1274.78 1715.42 1214.41 1701.26 1203.45C1700.79 1203.09 1712.03 1178.16 1712.67 1178.16C1712.87 1178.16 1733.15 1193.41 1757.72 1212.04ZM1746.47 1245.29C1772.52 1265.07 1793.83 1281.55 1793.83 1281.91C1793.83 1282.28 1792.68 1286.43 1791.27 1291.14L1788.71 1299.72H1780.43H1772.15L1729.43 1267.39C1700.71 1245.66 1686.77 1234.49 1686.91 1233.32C1687.2 1231.03 1697.66 1209.33 1698.47 1209.33C1698.82 1209.33 1720.42 1225.51 1746.47 1245.29ZM1723.64 1270.63L1761.48 1299.2L1740.33 1299.48L1719.19 1299.76L1695.71 1281.99C1682.8 1272.21 1672.24 1264.06 1672.24 1263.89C1672.24 1263.71 1674.21 1259.42 1676.62 1254.37C1679.04 1249.31 1681.44 1244.1 1681.97 1242.78C1682.63 1241.16 1683.4 1240.66 1684.38 1241.22C1685.17 1241.68 1702.84 1254.91 1723.64 1270.63ZM1698.34 1291.64L1708.92 1299.72H1682.11H1655.29L1662.34 1284.7L1669.39 1269.69L1678.58 1276.62C1683.63 1280.44 1692.53 1287.19 1698.34 1291.64Z" fill="#B5C7F0"/>
<path d="M989.024 419.885C972.259 335.642 951.061 308.73 906.039 273.133H1113.5C1064.43 321.579 1043.75 352.085 1034.2 419.885V1334H989.024V419.885Z" fill="#8293E7"/>
<ellipse cx="1017.61" cy="222.929" rx="218.22" ry="57.9287" fill="#8293E7"/>
<path d="M1522.44 834.118L1451.66 766.557V1089.67H1522.44V834.118Z" fill="#8293E7"/>
<path d="M1395.03 558C1395.37 718.579 1395.84 1068.13 1395.03 1181.71V1333.48H1760.07C1745.61 1248.04 1714.83 1210.36 1644.8 1181.71C1587.36 1158.21 1565.92 1105.34 1566.94 1073.03V810.618L1517.39 768.515V1073.03L1454.69 1027.01V606.957L1395.03 558Z" fill="#B5C7F0"/>
<path d="M1247.18 620.444L1179.25 596.829L1164.15 632.571H1124.35V1334H1323.35V593L1247.18 620.444Z" fill="#B5C7F0"/>
<path fill-rule="evenodd" clip-rule="evenodd" d="M288.782 115.001C305.881 115 433.738 115 457.524 115.001C481.31 115.002 480.566 151.467 457.524 151.467H356.491C353.147 155.272 354.165 162.932 358.637 165.324L361.627 165.324C388.76 165.324 387.645 197.415 361.627 197.414H314.544C309.214 201.455 311.306 212.525 319.038 212.73C443.96 212.73 590.915 212.73 609.908 212.73C642.616 212.732 644.103 258.678 609.908 258.678H487.647C480.392 263.657 480.567 279.952 487.741 284.933C507.301 284.933 523.329 284.933 530.37 284.934C554.158 284.935 554.158 321.4 530.37 321.4H361.629C343.788 321.4 343.045 284.935 361.629 284.934C368.648 284.933 391.046 284.933 417.485 284.933C425.683 279.952 426.562 263.657 417.959 258.678H139.364C110.745 258.678 113.719 212.731 139.364 212.73C147.644 212.73 196.212 212.73 259.293 212.73C268.197 212.528 269.527 201.456 263.877 197.414H163.151C137.506 197.414 141.594 165.325 163.151 165.324C178.839 165.324 262.436 165.324 317.252 165.324C320.855 162.932 321.338 155.272 318.7 151.467H288.782C274.657 151.467 271.683 115.002 288.782 115.001Z" fill="#BCEAE4"/>
<path fill-rule="evenodd" clip-rule="evenodd" d="M1489.78 373.001C1506.88 373 1634.74 373 1658.52 373.001C1682.31 373.002 1681.57 409.467 1658.52 409.467H1557.49C1554.15 413.272 1555.17 420.932 1559.64 423.324L1562.63 423.324C1589.76 423.324 1588.64 455.415 1562.63 455.414H1515.54C1510.21 459.455 1512.31 470.525 1520.04 470.73C1644.96 470.73 1791.92 470.73 1810.91 470.73C1843.62 470.732 1845.1 516.678 1810.91 516.678H1688.65C1681.39 521.657 1681.57 537.952 1688.74 542.933C1708.3 542.933 1724.33 542.933 1731.37 542.934C1755.16 542.935 1755.16 579.4 1731.37 579.4H1562.63C1544.79 579.4 1544.05 542.935 1562.63 542.934C1569.65 542.933 1592.05 542.933 1618.48 542.933C1626.68 537.952 1627.56 521.657 1618.96 516.678H1340.36C1311.75 516.678 1314.72 470.731 1340.36 470.73C1348.64 470.73 1397.21 470.73 1460.29 470.73C1469.2 470.528 1470.53 459.456 1464.88 455.414H1364.15C1338.51 455.414 1342.59 423.325 1364.15 423.324C1379.84 423.324 1463.44 423.324 1518.25 423.324C1521.85 420.932 1522.34 413.272 1519.7 409.467H1489.78C1475.66 409.467 1472.68 373.002 1489.78 373.001Z" fill="#BCEAE4"/>
<path d="M1748.55 257.256C1724.11 254.213 1705.32 263.097 1677 302.274C1692.81 230.436 1718.44 212.052 1778.12 228.445C1820.57 178.441 1849.79 154.749 1905 115C1875.13 168.742 1859.78 203.398 1818.19 257.256C1838.73 319.471 1817.71 342.913 1752.36 368C1780.03 336.081 1790.71 317.256 1786.71 285.167C1779 295.93 1775.04 299.949 1761.9 306.776C1751.72 293.276 1729.47 282.466 1729.47 282.466C1729.47 282.466 1736.69 264.812 1748.55 257.256Z" fill="#BCEAE4"/>
<path d="M1338.88 234.327C1365.3 225.998 1380.75 220.081 1409.9 216.805C1420.71 194.517 1433.51 188.619 1463.79 185.386C1494.2 183.518 1507.7 188.283 1520.86 202.908C1560.63 202.521 1579.99 205.937 1611.53 208.951C1626.52 211.748 1621.55 213.557 1611.53 216.805C1503.27 238.906 1443.49 244.642 1338.88 240.973C1328.62 239.956 1325.56 238.97 1338.88 234.327Z" fill="#BCEAE4"/>
</g>
<defs>
<filter id="filter0_d_178_1880" x="0" y="0" width="1928" height="1088" filterUnits="userSpaceOnUse" color-interpolation-filters="sRGB">
<feFlood flood-opacity="0" result="BackgroundImageFix"/>
<feColorMatrix in="SourceAlpha" type="matrix" values="0 0 0 0 0 0 0 0 0 0 0 0 0 0 0 0 0 0 127 0" result="hardAlpha"/>
<feOffset dy="4"/>
<feGaussianBlur stdDeviation="2"/>
<feComposite in2="hardAlpha" operator="out"/>
<feColorMatrix type="matrix" values="0 0 0 0 0 0 0 0 0 0 0 0 0 0 0 0 0 0 0.25 0"/>
<feBlend mode="normal" in2="BackgroundImageFix" result="effect1_dropShadow_178_1880"/>
<feBlend mode="normal" in="SourceGraphic" in2="effect1_dropShadow_178_1880" result="shape"/>
</filter>
<clipPath id="clip0_178_1880">
<rect width="1920" height="1080" fill="white" transform="translate(4)"/>
</clipPath>
</defs>
</svg>
